<?xml version="1.0" encoding="UTF-8" standalone="no"?>
<!-- Created with Inkscape (http://www.inkscape.org/) -->

<svg
   xmlns:dc="http://purl.org/dc/elements/1.1/"
   xmlns:cc="http://creativecommons.org/ns#"
   xmlns:rdf="http://www.w3.org/1999/02/22-rdf-syntax-ns#"
   xmlns:svg="http://www.w3.org/2000/svg"
   xmlns="http://www.w3.org/2000/svg"
   xmlns:sodipodi="http://sodipodi.sourceforge.net/DTD/sodipodi-0.dtd"
   xmlns:inkscape="http://www.inkscape.org/namespaces/inkscape"
   width="55.597893mm"
   height="10.290928mm"
   viewBox="0 0 55.597893 10.290928"
   version="1.1"
   id="svg3840"
   inkscape:version="0.92.4 (5da689c313, 2019-01-14)"
   sodipodi:docname="devblog.svg">
  <defs
     id="defs3834">
    <inkscape:path-effect
       effect="envelope"
       id="path-effect3832"
       is_visible="true"
       yy="true"
       xx="false"
       bendpath1="M 19.425912,37.404962 C 36.318068,33.834199 53.172564,34.283961 73.199086,37.243651"
       bendpath2="m 73.199086,37.243651 v 8.015015"
       bendpath3="m 17.737874,45.258666 c 16.132981,-2.969678 34.478072,-1.671703 55.461212,0"
       bendpath4="m 17.737874,37.243651 v 8.015015"
       bendpath1-nodetypes="cc"
       bendpath3-nodetypes="cc" />
  </defs>
  <sodipodi:namedview
     id="base"
     pagecolor="#ffffff"
     bordercolor="#666666"
     borderopacity="1.0"
     inkscape:pageopacity="0.0"
     inkscape:pageshadow="2"
     inkscape:zoom="3.959798"
     inkscape:cx="102.80074"
     inkscape:cy="23.471684"
     inkscape:document-units="mm"
     inkscape:current-layer="layer1"
     showgrid="false"
     inkscape:window-width="1869"
     inkscape:window-height="550"
     inkscape:window-x="26"
     inkscape:window-y="20"
     inkscape:window-maximized="1" />
  <metadata
     id="metadata3837">
    <rdf:RDF>
      <cc:Work
         rdf:about="">
        <dc:format>image/svg+xml</dc:format>
        <dc:type
           rdf:resource="http://purl.org/dc/dcmitype/StillImage" />
        <dc:title />
      </cc:Work>
    </rdf:RDF>
  </metadata>
  <g
     inkscape:label="Layer 1"
     inkscape:groupmode="layer"
     id="layer1"
     transform="translate(-6.959329,-11.22859)">
    <g
       aria-label="DEV BLOG"
       style="font-style:normal;font-weight:normal;font-size:10.58333302px;line-height:1.25;font-family:sans-serif;letter-spacing:0.26458332px;word-spacing:0px;fill:#000000;fill-opacity:1;stroke:none;stroke-width:0.26458332"
       id="text3811"
       inkscape:path-effect="#path-effect3832"
       transform="translate(-10.670085,-23.54841)">
      <path
         d="m 24.958355,40.250058 c -0.129397,0.698733 -0.40175,1.351439 -0.817662,1.959103 -0.41256,0.607274 -0.904401,1.099618 -1.472165,1.48139 -0.39382,0.26439 -0.816479,0.475328 -1.267088,0.634837 -0.44812,0.159329 -1.019122,0.292041 -1.717558,0.407128 -0.639583,0.105389 -1.278575,0.216953 -1.916943,0.334931 0.603203,-2.525583 1.14296,-5.0386 1.61927,-7.539052 0.611584,-0.12908 1.223971,-0.252553 1.837112,-0.370542 0.718127,-0.138192 1.280774,-0.186686 1.684834,-0.151999 0.40833,0.03074 0.744599,0.116887 1.00796,0.256513 0.449074,0.242055 0.770893,0.615302 0.960875,1.115581 0.189956,0.500213 0.219557,1.125886 0.08137,1.87211 z m -1.042059,0.130484 c 0.113857,-0.599773 0.10346,-1.09061 -0.02632,-1.469656 -0.12981,-0.37913 -0.376373,-0.654329 -0.736808,-0.822661 -0.262329,-0.121843 -0.551845,-0.186097 -0.868554,-0.192745 -0.316029,-0.01004 -0.702672,0.02701 -1.159415,0.113001 -0.307879,0.05796 -0.615587,0.117308 -0.923115,0.178056 -0.369318,1.937446 -0.777656,3.881855 -1.225013,5.833228 0.315165,-0.05572 0.630474,-0.109912 0.945921,-0.162616 0.485307,-0.08108 0.915448,-0.183817 1.291255,-0.311319 0.378972,-0.12795 0.740647,-0.310933 1.08405,-0.550336 0.42832,-0.298342 0.776089,-0.658319 1.042547,-1.082748 0.269756,-0.424774 0.462176,-0.935476 0.575456,-1.532207 -1e-6,1e-6 -1e-6,2e-6 -1e-6,3e-6 z"
         style="stroke-width:0.26458332"
         id="path3817"
         inkscape:original-d="m 24.238769,41.25891 q 0,1.049032 -0.45992,1.901693 -0.454753,0.852661 -1.214396,1.322916 -0.5271,0.325562 -1.178223,0.470256 -0.645955,0.144694 -1.705322,0.144694 h -1.943034 v -7.694621 h 1.922364 q 1.126546,0 1.788004,0.165365 0.666626,0.160197 1.126546,0.444417 0.785482,0.490926 1.224732,1.307414 0.439249,0.816487 0.439249,1.937866 z m -1.069702,-0.0155 q 0,-0.904337 -0.315226,-1.524455 -0.315226,-0.62012 -0.940511,-0.976687 -0.454753,-0.258382 -0.966349,-0.356568 -0.511597,-0.103352 -1.224732,-0.103352 h -0.961181 v 5.937621 h 0.961181 q 0.738973,0 1.286743,-0.10852 0.552938,-0.108521 1.012858,-0.403076 0.573609,-0.366903 0.857829,-0.966349 0.289388,-0.599447 0.289388,-1.498617 z"
         inkscape:connector-curvature="0" />
      <path
         d="m 31.150852,43.456828 c -1.683893,0.105512 -3.36514,0.24333 -5.043138,0.417722 0.528901,-2.583561 0.984247,-5.160636 1.366037,-7.731227 1.628938,-0.217031 3.261996,-0.398868 4.898296,-0.5478 -0.03961,0.309258 -0.08023,0.618573 -0.121858,0.927945 -1.31015,0.11461 -2.618473,0.250107 -3.924537,0.407775 -0.106646,0.707277 -0.218826,1.414999 -0.336538,2.123164 1.316729,-0.147947 2.635326,-0.273592 3.9554,-0.378492 -0.04628,0.309633 -0.09357,0.619322 -0.141862,0.929068 -1.324522,0.100785 -2.647634,0.222267 -3.96896,0.366121 -0.166016,0.960362 -0.342197,1.92154 -0.528542,2.883534 1.335758,-0.13139 2.673377,-0.240133 4.012535,-0.328279 -0.05461,0.3101 -0.110217,0.620257 -0.166833,0.930469 z"
         style="stroke-width:0.26458332"
         id="path3819"
         inkscape:original-d="m 31.236792,45.098469 h -5.069458 v -7.694621 h 5.069458 v 0.909505 h -4.046265 v 2.108399 h 4.046265 v 0.909505 h -4.046265 v 2.857707 h 4.046265 z"
         inkscape:connector-curvature="0" />
      <path
         d="m 40.099753,35.128521 c -1.187518,2.718257 -2.440965,5.404624 -3.801062,8.10208 -0.45444,0.01189 -0.908732,0.0258 -1.362865,0.04183 -0.495908,-2.633884 -1.021114,-5.198955 -1.601648,-7.760671 0.353882,-0.02942 0.707907,-0.05732 1.062067,-0.08373 0.502097,2.267688 0.962463,4.540487 1.399234,6.861697 1.167907,-2.371758 2.255613,-4.737671 3.288763,-7.125799 0.338419,-0.01306 0.676926,-0.02485 1.015511,-0.03541 z"
         style="stroke-width:0.26458332"
         id="path3821"
         inkscape:original-d="m 39.195995,37.403848 -2.800862,7.694621 h -1.364258 l -2.800863,-7.694621 h 1.095541 l 2.413289,6.769613 2.413289,-6.769613 z"
         inkscape:connector-curvature="0" />
      <path
         d="m 50.566073,40.884904 c -0.03514,0.408807 -0.138174,0.766451 -0.309935,1.073163 -0.171767,0.306724 -0.389177,0.555913 -0.652416,0.748078 -0.311729,0.230758 -0.647386,0.39057 -1.006254,0.480005 -0.35554,0.0896 -0.80107,0.124455 -1.336786,0.106526 -0.912096,-0.03052 -1.823979,-0.05562 -2.735556,-0.07461 0.323698,-2.720674 0.607637,-5.439408 0.851818,-8.156202 0.740529,0.004 1.481245,0.01334 2.222068,0.02794 0.547119,0.01079 0.956234,0.04363 1.224259,0.09505 0.268538,0.05152 0.521417,0.151144 0.758735,0.298812 0.262676,0.166888 0.446178,0.378082 0.550168,0.632534 0.104296,0.250788 0.142337,0.54923 0.113622,0.894806 -0.03239,0.3898 -0.151437,0.718955 -0.357601,0.987835 -0.20587,0.265228 -0.468584,0.474844 -0.788289,0.629688 -0.0013,0.0147 -0.0026,0.0294 -0.0039,0.04409 0.501522,0.13158 0.8839,0.392178 1.147153,0.779669 0.263515,0.383733 0.371973,0.86204 0.322931,1.432612 0,2e-6 0,3e-6 0,4e-6 z m -1.374791,-3.767686 c 0.01705,-0.198334 9.5e-4,-0.366473 -0.04813,-0.504261 -0.04908,-0.137789 -0.137423,-0.251016 -0.264923,-0.33943 -0.149824,-0.103797 -0.336553,-0.169784 -0.560188,-0.197651 -0.223227,-0.03152 -0.501697,-0.05118 -0.834814,-0.05812 -0.397177,-0.0083 -0.794337,-0.01511 -1.19147,-0.02045 -0.07134,0.786146 -0.145647,1.572463 -0.222929,2.35895 0.433521,0.0076 0.867051,0.0168 1.300576,0.02758 0.315109,0.0078 0.56703,-0.0016 0.756421,-0.02929 0.189611,-0.03131 0.368943,-0.09946 0.537838,-0.204614 0.168905,-0.105163 0.292977,-0.242872 0.372306,-0.413424 0.08302,-0.174099 0.134776,-0.380514 0.155308,-0.619278 0,0 2e-6,-10e-7 2e-6,-10e-7 z m 0.315431,3.767494 c 0.02995,-0.331043 0.0074,-0.595997 -0.06705,-0.794382 -0.07445,-0.198402 -0.226384,-0.37025 -0.455386,-0.51475 -0.154833,-0.09765 -0.348246,-0.163241 -0.58028,-0.196478 -0.228239,-0.03679 -0.508954,-0.06014 -0.841792,-0.06934 -0.52825,-0.01461 -1.056511,-0.02701 -1.58476,-0.03708 -0.102542,1.013458 -0.210016,2.027199 -0.322424,3.041222 0.450471,0.0109 0.900987,0.02329 1.351535,0.03709 0.447317,0.0137 0.815692,0.0024 1.10601,-0.03525 0.290532,-0.04132 0.53313,-0.124396 0.727762,-0.249838 0.205972,-0.136075 0.361848,-0.294169 0.467922,-0.474608 0.106072,-0.180437 0.172164,-0.415919 0.198461,-0.706587 z"
         style="stroke-width:0.26458332"
         id="path3823"
         inkscape:original-d="m 50.417015,42.731688 q 0,0.573609 -0.217041,1.012858 -0.217041,0.43925 -0.583944,0.72347 -0.434082,0.341065 -0.956014,0.485759 -0.516764,0.144694 -1.317749,0.144694 h -2.728515 v -7.694621 h 2.27893 q 0.842326,0 1.260905,0.06201 0.418579,0.06201 0.800985,0.258382 0.423747,0.222209 0.614949,0.573608 0.191203,0.346233 0.191203,0.831991 0,0.54777 -0.279053,0.935343 -0.279052,0.382406 -0.74414,0.61495 v 0.04134 q 0.780314,0.160197 1.229899,0.687297 0.449585,0.521932 0.449585,1.322916 z M 48.69619,39.2642 q 0,-0.279053 -0.09302,-0.470256 -0.09302,-0.191203 -0.299723,-0.310058 -0.242879,-0.139527 -0.589111,-0.170533 -0.346233,-0.03617 -0.857829,-0.03617 h -1.219564 v 2.222086 h 1.322917 q 0.48059,0 0.764811,-0.04651 0.28422,-0.05168 0.527099,-0.206706 0.24288,-0.155029 0.341065,-0.397909 0.103353,-0.248046 0.103353,-0.583943 z m 0.65629,3.508829 q 0,-0.465087 -0.139526,-0.738973 -0.139526,-0.273885 -0.506429,-0.465087 -0.248047,-0.129192 -0.604614,-0.165365 -0.3514,-0.04134 -0.857829,-0.04134 h -1.607137 v 2.862874 h 1.353923 q 0.671793,0 1.100707,-0.06718 0.428915,-0.07235 0.7028,-0.258382 0.289388,-0.201538 0.423747,-0.459921 0.134358,-0.258382 0.134358,-0.666626 z"
         inkscape:connector-curvature="0" />
      <path
         d="m 56.951383,43.791645 c -1.627848,-0.108223 -3.256077,-0.206646 -4.884155,-0.291492 0.218521,-2.746627 0.433086,-5.489715 0.643696,-8.229264 0.332647,0.01685 0.665279,0.03465 0.997888,0.05339 -0.182431,2.415957 -0.363382,4.834955 -0.542854,7.256994 1.279295,0.07112 2.5584,0.15081 3.837038,0.23731 -0.01757,0.324275 -0.03477,0.648628 -0.05161,0.973061 z"
         style="stroke-width:0.26458332"
         id="path3825"
         inkscape:original-d="m 57.001626,45.098469 h -4.86792 V 37.403848 H 53.1569 v 6.785116 h 3.844726 z"
         inkscape:connector-curvature="0" />
      <path
         d="m 64.132953,37.131956 c 0.283345,0.393862 0.491544,0.860809 0.627359,1.400831 0.139149,0.540282 0.196566,1.142313 0.174234,1.806809 -0.02234,0.664735 -0.121523,1.253217 -0.302709,1.767031 -0.177727,0.510552 -0.41991,0.929182 -0.730668,1.256803 -0.321163,0.341206 -0.700023,0.588096 -1.137976,0.740421 -0.434344,0.152538 -0.93068,0.208222 -1.487469,0.166499 -0.542952,-0.04069 -1.034913,-0.172327 -1.473608,-0.395898 -0.43527,-0.223334 -0.799827,-0.527892 -1.09281,-0.914388 -0.292987,-0.386501 -0.509101,-0.850468 -0.648454,-1.392385 -0.135911,-0.541564 -0.183496,-1.152656 -0.143412,-1.832751 0.03942,-0.66883 0.157866,-1.262107 0.353038,-1.777945 0.195455,-0.519642 0.46079,-0.955872 0.794827,-1.30739 0.319431,-0.334371 0.703917,-0.57731 1.152877,-0.72781 0.452391,-0.150223 0.936538,-0.199856 1.452622,-0.149061 0.536148,0.05277 1.010166,0.198648 1.422772,0.43519 0.416257,0.233303 0.762131,0.541802 1.039377,0.924044 z m -0.241885,3.108123 c 0.03941,-1.051074 -0.137854,-1.882143 -0.542224,-2.495348 -0.403995,-0.616568 -0.979896,-0.964947 -1.734793,-1.03727 -0.76127,-0.07293 -1.379375,0.161541 -1.852755,0.702647 -0.469197,0.537056 -0.738321,1.34076 -0.797101,2.404619 -0.05945,1.075895 0.124565,1.917452 0.551759,2.524516 0.427421,0.603488 1.026732,0.932884 1.790258,0.992011 0.763905,0.05916 1.376289,-0.176113 1.837568,-0.703138 0.465475,-0.531169 0.707432,-1.325044 0.747288,-2.388037 z"
         style="stroke-width:0.26458332"
         id="path3827"
         inkscape:original-d="m 63.922135,38.287515 q 0.470256,0.516765 0.718303,1.266073 0.253214,0.749308 0.253214,1.700154 0,0.950847 -0.258382,1.705323 -0.253214,0.749308 -0.713135,1.250569 -0.475423,0.521932 -1.126546,0.785482 -0.645955,0.26355 -1.477946,0.26355 -0.81132,0 -1.477946,-0.268718 -0.661458,-0.268717 -1.126546,-0.780314 -0.465088,-0.511596 -0.718302,-1.255737 -0.248047,-0.744141 -0.248047,-1.700155 0,-0.940511 0.248047,-1.684651 0.248047,-0.749309 0.72347,-1.281576 0.454752,-0.506429 1.126546,-0.775146 0.676961,-0.268718 1.472778,-0.268718 0.826823,0 1.483114,0.273885 0.661458,0.268718 1.121378,0.769979 z m -0.09302,2.966227 q 0,-1.498616 -0.671794,-2.309936 -0.671793,-0.816488 -1.834513,-0.816488 -1.173055,0 -1.844849,0.816488 -0.666626,0.81132 -0.666626,2.309936 0,1.51412 0.682129,2.320272 0.682129,0.800985 1.829346,0.800985 1.147217,0 1.824178,-0.800985 0.682129,-0.806152 0.682129,-2.320272 z"
         inkscape:connector-curvature="0" />
      <path
         d="m 73.135205,44.486015 c -0.40713,0.158259 -0.856088,0.290698 -1.34739,0.396735 -0.488125,0.102835 -0.96555,0.136339 -1.431093,0.09846 -0.600005,-0.04881 -1.15325,-0.178574 -1.656955,-0.391248 -0.503673,-0.212661 -0.932792,-0.505863 -1.285063,-0.880433 -0.35568,-0.378404 -0.627144,-0.83714 -0.812491,-1.375889 -0.185239,-0.542131 -0.269021,-1.164727 -0.249187,-1.864939 0.03629,-1.281073 0.436871,-2.255669 1.171377,-2.904977 0.740111,-0.654296 1.721165,-0.894323 2.933858,-0.727781 0.423169,0.05812 0.850457,0.172522 1.282819,0.341837 0.436249,0.166451 0.899666,0.411616 1.394575,0.733926 -0.02248,0.402322 -0.04087,0.805108 -0.05518,1.208359 -0.02997,-0.0039 -0.05995,-0.0079 -0.08993,-0.0118 -0.100424,-0.09607 -0.246023,-0.223851 -0.436997,-0.384373 -0.190886,-0.160447 -0.37877,-0.298414 -0.564311,-0.413738 -0.224598,-0.137912 -0.48156,-0.261416 -0.771016,-0.369993 -0.28591,-0.111598 -0.613854,-0.192141 -0.983858,-0.240431 -0.833276,-0.108751 -1.510868,0.09098 -2.026492,0.605064 -0.511029,0.509855 -0.788281,1.259188 -0.812383,2.23773 -0.02544,1.033035 0.226876,1.864083 0.747592,2.485979 0.521292,0.619029 1.237822,0.963791 2.135438,1.04216 0.328726,0.0287 0.654571,0.02371 0.977112,-0.01435 0.325935,-0.03775 0.609694,-0.09798 0.851361,-0.180483 -0.02389,-0.636695 -0.03852,-1.272334 -0.04392,-1.906917 -0.672554,-0.07062 -1.345693,-0.140551 -2.019369,-0.209563 6.02e-4,-0.30667 0.003,-0.613129 0.0073,-0.919377 1.000344,0.108693 1.999415,0.22011 2.997047,0.33352 -0.0012,1.100737 0.02786,2.204911 0.08717,3.312521 z"
         style="stroke-width:0.26458332"
         id="path3829"
         inkscape:original-d="m 73.199086,44.530028 q -0.630452,0.289388 -1.37976,0.506429 -0.744141,0.211873 -1.441773,0.211873 -0.89917,0 -1.648478,-0.248046 -0.749308,-0.248047 -1.276408,-0.744141 -0.532267,-0.501261 -0.821655,-1.25057 -0.289388,-0.754476 -0.289388,-1.762166 0,-1.844849 1.07487,-2.909383 1.080037,-1.069702 2.961059,-1.069702 0.656291,0 1.33842,0.160197 0.687296,0.155029 1.477946,0.532267 v 1.214396 h -0.09302 q -0.160197,-0.124023 -0.465088,-0.325561 -0.304891,-0.201538 -0.599446,-0.335897 -0.356568,-0.160197 -0.81132,-0.26355 -0.449585,-0.10852 -1.023194,-0.10852 -1.29191,0 -2.046386,0.83199 -0.749309,0.826823 -0.749309,2.242757 0,1.493449 0.785482,2.32544 0.785482,0.826822 2.139404,0.826822 0.496094,0 0.98702,-0.09819 0.496094,-0.09819 0.868164,-0.253214 v -1.88619 h -2.061889 v -0.89917 h 3.074747 z"
         inkscape:connector-curvature="0" />
    </g>
  </g>
</svg>
