<?xml version="1.0" encoding="UTF-8" standalone="no"?>
<!-- Created with Inkscape (http://www.inkscape.org/) -->

<svg
   xmlns:dc="http://purl.org/dc/elements/1.1/"
   xmlns:cc="http://creativecommons.org/ns#"
   xmlns:rdf="http://www.w3.org/1999/02/22-rdf-syntax-ns#"
   xmlns:svg="http://www.w3.org/2000/svg"
   xmlns="http://www.w3.org/2000/svg"
   xmlns:sodipodi="http://sodipodi.sourceforge.net/DTD/sodipodi-0.dtd"
   xmlns:inkscape="http://www.inkscape.org/namespaces/inkscape"
   width="54.586414mm"
   height="13.149073mm"
   viewBox="0 0 54.586414 13.149072"
   version="1.1"
   id="svg3840"
   inkscape:version="0.92.4 (5da689c313, 2019-01-14)"
   sodipodi:docname="devblog.svg">
  <defs
     id="defs3834">
    <inkscape:path-effect
       effect="envelope"
       id="path-effect3844"
       is_visible="true"
       yy="true"
       xx="false"
       bendpath1="m 20.687383,39.109798 c 18.62797,-3.973756 33.377516,-4.848701 51.99461,-5.450394"
       bendpath2="m 73.199086,37.243651 v 8.015015"
       bendpath3="M 18.144328,47.075865 C 36.944581,43.276404 54.740463,41.626184 72.719204,41.941421"
       bendpath4="m 17.737874,37.243651 v 8.015015"
       bendpath1-nodetypes="cc"
       bendpath3-nodetypes="cc" />
    <inkscape:path-effect
       effect="envelope"
       id="path-effect3832"
       is_visible="true"
       yy="true"
       xx="false"
       bendpath1="M 19.425912,37.404962 C 36.318068,33.834199 53.172564,34.283961 73.199086,37.243651"
       bendpath2="m 73.199086,37.243651 v 8.015015"
       bendpath3="m 17.737874,45.258666 c 16.132981,-2.969678 34.478072,-1.671703 55.461212,0"
       bendpath4="m 17.737874,37.243651 v 8.015015"
       bendpath1-nodetypes="cc"
       bendpath3-nodetypes="cc" />
    <inkscape:path-effect
       effect="envelope"
       id="path-effect3794"
       is_visible="true"
       yy="true"
       xx="false"
       bendpath1="M 44.930433,59.190215 C 113.1593,40.742575 177.72304,43.512871 242.8418,40.754931"
       bendpath2="M 242.8418,40.754931 V 71.0479"
       bendpath3="M 35.586522,86.957802 C 106.45483,69.516189 173.7659,73.552792 242.8418,71.0479"
       bendpath4="M 35.333984,40.754931 V 71.0479"
       bendpath1-nodetypes="cc"
       bendpath3-nodetypes="cc" />
    <filter
       inkscape:label="Opacity"
       style="color-interpolation-filters:sRGB"
       id="filter3842">
      <feColorMatrix
         values="1 0 0 0 0 0 1 0 0 0 0 0 1 0 0 0 0 0 5 -1 "
         result="colormatrix"
         id="feColorMatrix3838" />
      <feComposite
         in2="colormatrix"
         operator="arithmetic"
         k2="0.21"
         result="composite"
         id="feComposite3840"
         k1="0"
         k3="0"
         k4="0" />
    </filter>
  </defs>
  <sodipodi:namedview
     id="base"
     pagecolor="#ffffff"
     bordercolor="#666666"
     borderopacity="1.0"
     inkscape:pageopacity="0.0"
     inkscape:pageshadow="2"
     inkscape:zoom="5.6"
     inkscape:cx="100.55967"
     inkscape:cy="24.570569"
     inkscape:document-units="mm"
     inkscape:current-layer="layer1"
     showgrid="false"
     inkscape:window-width="1920"
     inkscape:window-height="1057"
     inkscape:window-x="-8"
     inkscape:window-y="-8"
     inkscape:window-maximized="1" />
  <metadata
     id="metadata3837">
    <rdf:RDF>
      <cc:Work
         rdf:about="">
        <dc:format>image/svg+xml</dc:format>
        <dc:type
           rdf:resource="http://purl.org/dc/dcmitype/StillImage" />
        <dc:title />
      </cc:Work>
    </rdf:RDF>
  </metadata>
  <g
     inkscape:label="Layer 1"
     inkscape:groupmode="layer"
     id="layer1"
     transform="translate(-7.51943,-10.183036)">
    <g
       aria-label="DEV BLOG"
       style="font-style:normal;font-weight:normal;font-size:10.58333302px;line-height:1.25;font-family:sans-serif;letter-spacing:0.26458332px;word-spacing:0px;fill:#000000;fill-opacity:1;stroke:none;stroke-width:0.26458332"
       id="text3811"
       transform="translate(-10.670085,-23.54841)"
       inkscape:path-effect="#path-effect3844">
      <path
         d="m 25.585247,41.87097 c -0.195243,0.693924 -0.518218,1.348493 -0.974083,1.966264 -0.452565,0.61719 -0.969882,1.125818 -1.552422,1.528201 -0.403917,0.278611 -0.831593,0.5054 -1.28219,0.680937 -0.447505,0.175006 -1.014051,0.327894 -1.700017,0.461703 -0.628705,0.122638 -1.256952,0.247514 -1.884726,0.374614 0.839823,-2.554547 1.65364,-5.1037 2.441451,-7.64746 0.591987,-0.126246 1.184475,-0.249625 1.777444,-0.370206 0.694658,-0.141259 1.231102,-0.195115 1.607865,-0.165275 0.381181,0.02582 0.687545,0.106323 0.918825,0.240368 0.393887,0.232542 0.652624,0.594713 0.774978,1.084155 0.122333,0.489359 0.08142,1.1055 -0.127125,1.846699 z m -1.010985,0.169098 c 0.171963,-0.598167 0.21694,-1.084412 0.137516,-1.457589 -0.07944,-0.373249 -0.279873,-0.64132 -0.60026,-0.802657 -0.233251,-0.116746 -0.498784,-0.176593 -0.797135,-0.179255 -0.297293,-0.0061 -0.666938,0.03502 -1.108845,0.124366 -0.297856,0.06022 -0.595584,0.121129 -0.893182,0.182722 -0.602613,1.964082 -1.218654,3.931215 -1.848124,5.901399 0.308813,-0.06168 0.617751,-0.122787 0.926809,-0.183334 0.47534,-0.09312 0.900367,-0.20881 1.274712,-0.348087 0.377624,-0.139895 0.743533,-0.334929 1.096821,-0.58545 0.440657,-0.312234 0.808946,-0.682802 1.105826,-1.11334 0.300225,-0.43121 0.534758,-0.943597 0.705863,-1.538778 0,1e-6 -10e-7,2e-6 -10e-7,3e-6 z"
         style="stroke-width:0.26458332"
         id="path3817"
         inkscape:connector-curvature="0"
         inkscape:original-d="m 24.238769,41.25891 q 0,1.049032 -0.45992,1.901693 -0.454753,0.852661 -1.214396,1.322916 -0.5271,0.325562 -1.178223,0.470256 -0.645955,0.144694 -1.705322,0.144694 h -1.943034 v -7.694621 h 1.922364 q 1.126546,0 1.788004,0.165365 0.666626,0.160197 1.126546,0.444417 0.785482,0.490926 1.224732,1.307414 0.439249,0.816487 0.439249,1.937866 z m -1.069702,-0.0155 q 0,-0.904337 -0.315226,-1.524455 -0.315226,-0.62012 -0.940511,-0.976687 -0.454753,-0.258382 -0.966349,-0.356568 -0.511597,-0.103352 -1.224732,-0.103352 h -0.961181 v 5.937621 h 0.961181 q 0.738973,0 1.286743,-0.10852 0.552938,-0.108521 1.012858,-0.403076 0.573609,-0.366903 0.857829,-0.966349 0.289388,-0.599447 0.289388,-1.498617 z" />
      <path
         d="m 31.338773,44.560113 c -1.652919,0.249336 -3.303418,0.514426 -4.951196,0.795041 0.690247,-2.543767 1.377071,-5.084154 2.060475,-7.62116 1.571756,-0.270153 3.146424,-0.522499 4.72366,-0.758324 -0.07266,0.298544 -0.145265,0.597121 -0.217819,0.895732 -1.265642,0.189427 -2.529498,0.389316 -3.791396,0.600229 -0.183662,0.694824 -0.367443,1.389886 -0.551343,2.085186 1.277588,-0.213279 2.557309,-0.415886 3.838995,-0.608172 -0.07231,0.298766 -0.144574,0.597566 -0.216782,0.896399 -1.288783,0.193553 -2.575594,0.397368 -3.860269,0.611705 -0.249396,0.942683 -0.499012,1.885802 -0.748847,2.829358 1.308186,-0.217814 2.618241,-0.425564 3.930009,-0.623226 -0.07188,0.299044 -0.14371,0.598121 -0.215487,0.897232 z"
         style="stroke-width:0.26458332"
         id="path3819"
         inkscape:connector-curvature="0"
         inkscape:original-d="m 31.236792,45.098469 h -5.069458 v -7.694621 h 5.069458 v 0.909505 h -4.046265 v 2.108399 h 4.046265 v 0.909505 h -4.046265 v 2.857707 h 4.046265 z" />
      <path
         d="m 40.618307,35.982123 c -1.36367,2.59127 -2.792584,5.248286 -4.226641,7.866046 -0.446063,0.05841 -0.891973,0.117973 -1.337724,0.178691 -0.368078,-2.404307 -0.682576,-4.781979 -0.954889,-7.187907 0.341065,-0.04957 0.682247,-0.09839 1.023542,-0.146457 0.237761,2.117791 0.508762,4.216593 0.819662,6.332893 1.252361,-2.306952 2.498088,-4.639277 3.697534,-6.925824 0.326084,-0.03977 0.652257,-0.07891 0.978516,-0.117442 z"
         style="stroke-width:0.26458332"
         id="path3821"
         inkscape:connector-curvature="0"
         inkscape:original-d="m 39.195995,37.403848 -2.800862,7.694621 h -1.364258 l -2.800863,-7.694621 h 1.095541 l 2.413289,6.769613 2.413289,-6.769613 z" />
      <path
         d="m 50.496789,40.118069 c -0.04937,0.371842 -0.163735,0.705352 -0.344036,1.001104 -0.180286,0.295727 -0.403461,0.544994 -0.669607,0.748349 -0.315272,0.243673 -0.651478,0.426449 -1.007844,0.548712 -0.353055,0.122009 -0.792846,0.20545 -1.319203,0.251888 -0.896273,0.07907 -1.792124,0.162922 -2.687506,0.25151 0.412665,-2.497067 0.824734,-4.993494 1.236205,-7.48928 0.714054,-0.07084 1.428443,-0.139021 2.143138,-0.204667 0.528012,-0.0485 0.921246,-0.06345 1.178055,-0.04639 0.257085,0.01708 0.496973,0.07902 0.720227,0.185732 0.246939,0.121211 0.416057,0.290917 0.506663,0.508539 0.09105,0.214264 0.11629,0.478962 0.07468,0.79367 -0.04694,0.35505 -0.175909,0.665137 -0.388252,0.931034 -0.211862,0.262513 -0.477486,0.481377 -0.796993,0.657296 -0.0019,0.01339 -0.0038,0.02679 -0.0056,0.04018 0.485888,0.06151 0.850824,0.252213 1.094941,0.570608 0.24452,0.31499 0.334061,0.732738 0.265164,1.251704 0,1e-6 0,2e-6 0,3e-6 z m -1.201751,-3.235401 c 0.02517,-0.1808 0.01679,-0.330674 -0.02487,-0.449492 -0.04167,-0.118825 -0.122486,-0.211135 -0.242292,-0.276782 -0.140795,-0.07706 -0.318934,-0.116015 -0.534603,-0.116676 -0.215137,-0.004 -0.484229,0.0086 -0.806963,0.03816 -0.38476,0.03527 -0.769418,0.07129 -1.15397,0.108083 -0.114101,0.720436 -0.228396,1.440917 -0.342883,2.161445 0.423133,-0.04032 0.846413,-0.07967 1.269835,-0.118054 0.307724,-0.0279 0.554688,-0.06465 0.741125,-0.110831 0.186859,-0.04951 0.365269,-0.131163 0.534952,-0.245032 0.169706,-0.113885 0.296826,-0.252064 0.38158,-0.414817 0.08852,-0.166385 0.147781,-0.358319 0.178089,-0.576 0,0 2e-6,-10e-7 2e-6,-10e-7 z m 0.159065,3.357911 c 0.0418,-0.301342 0.0296,-0.53721 -0.036,-0.707233 -0.0656,-0.170045 -0.208225,-0.307304 -0.427294,-0.411282 -0.148118,-0.07025 -0.335244,-0.1073 -0.561471,-0.110907 -0.222377,-0.0072 -0.496629,0.0035 -0.822498,0.03263 -0.517167,0.04625 -1.034126,0.09396 -1.550865,0.143137 -0.147695,0.928355 -0.295711,1.856786 -0.444046,2.785294 0.442434,-0.04201 0.884997,-0.08288 1.327683,-0.122606 0.43945,-0.03944 0.802483,-0.09238 1.089508,-0.159939 0.287427,-0.07089 0.529271,-0.173804 0.725445,-0.30922 0.207737,-0.146306 0.366985,-0.306577 0.478045,-0.481186 0.111067,-0.17462 0.184784,-0.394083 0.221489,-0.658685 z"
         style="stroke-width:0.26458332"
         id="path3823"
         inkscape:connector-curvature="0"
         inkscape:original-d="m 50.417015,42.731688 q 0,0.573609 -0.217041,1.012858 -0.217041,0.43925 -0.583944,0.72347 -0.434082,0.341065 -0.956014,0.485759 -0.516764,0.144694 -1.317749,0.144694 h -2.728515 v -7.694621 h 2.27893 q 0.842326,0 1.260905,0.06201 0.418579,0.06201 0.800985,0.258382 0.423747,0.222209 0.614949,0.573608 0.191203,0.346233 0.191203,0.831991 0,0.54777 -0.279053,0.935343 -0.279052,0.382406 -0.74414,0.61495 v 0.04134 q 0.780314,0.160197 1.229899,0.687297 0.449585,0.521932 0.449585,1.322916 z M 48.69619,39.2642 q 0,-0.279053 -0.09302,-0.470256 -0.09302,-0.191203 -0.299723,-0.310058 -0.242879,-0.139527 -0.589111,-0.170533 -0.346233,-0.03617 -0.857829,-0.03617 h -1.219564 v 2.222086 h 1.322917 q 0.48059,0 0.764811,-0.04651 0.28422,-0.05168 0.527099,-0.206706 0.24288,-0.155029 0.341065,-0.397909 0.103353,-0.248046 0.103353,-0.583943 z m 0.65629,3.508829 q 0,-0.465087 -0.139526,-0.738973 -0.139526,-0.273885 -0.506429,-0.465087 -0.248047,-0.129192 -0.604614,-0.165365 -0.3514,-0.04134 -0.857829,-0.04134 h -1.607137 v 2.862874 h 1.353923 q 0.671793,0 1.100707,-0.06718 0.428915,-0.07235 0.7028,-0.258382 0.289388,-0.201538 0.423747,-0.459921 0.134358,-0.258382 0.134358,-0.666626 z" />
      <path
         d="m 56.688711,42.009448 c -1.603311,0.07995 -3.205811,0.175512 -4.80723,0.286469 0.318408,-2.49495 0.619017,-4.989722 0.901827,-7.484316 0.32144,-0.02451 0.642927,-0.04857 0.964458,-0.07218 -0.233221,2.201012 -0.482741,4.402136 -0.748559,6.603373 1.259705,-0.08324 2.520193,-0.157236 3.781328,-0.22198 -0.03012,0.296209 -0.06073,0.592418 -0.09182,0.888629 z"
         style="stroke-width:0.26458332"
         id="path3825"
         inkscape:connector-curvature="0"
         inkscape:original-d="m 57.001626,45.098469 h -4.86792 V 37.403848 H 53.1569 v 6.785116 h 3.844726 z" />
      <path
         d="m 63.884753,35.006878 c 0.28806,0.328294 0.505116,0.738404 0.647502,1.228857 0.145685,0.4903 0.207366,1.051913 0.179881,1.68258 -0.0275,0.631001 -0.140176,1.198868 -0.337698,1.703579 -0.193919,0.50112 -0.454453,0.920876 -0.77968,1.259917 -0.336374,0.352976 -0.72701,0.621349 -1.169961,0.806595 -0.439586,0.185173 -0.934538,0.285504 -1.483411,0.303113 -0.535188,0.01717 -1.014863,-0.05363 -1.437814,-0.212514 -0.419655,-0.159051 -0.766285,-0.398387 -1.04033,-0.718895 -0.274106,-0.320578 -0.470548,-0.718833 -0.591092,-1.196131 -0.117206,-0.477603 -0.147098,-1.027105 -0.09305,-1.650732 0.05314,-0.61318 0.178616,-1.166959 0.375207,-1.661246 0.19684,-0.497617 0.457835,-0.929181 0.782593,-1.293942 0.31053,-0.347154 0.681833,-0.621068 1.114744,-0.820716 0.436228,-0.199862 0.903125,-0.313809 1.403372,-0.340688 0.519737,-0.02793 0.982386,0.03786 1.39005,0.197851 0.410883,0.156363 0.757783,0.393921 1.039691,0.712372 z m -0.20616,2.945616 c 0.04946,-0.990173 -0.139077,-1.747396 -0.545484,-2.262989 -0.407027,-0.51996 -0.977472,-0.760341 -1.712824,-0.722722 -0.742185,0.03797 -1.340129,0.337799 -1.802626,0.894538 -0.458872,0.553046 -0.728328,1.319749 -0.806813,2.298113 -0.07941,0.989841 0.07456,1.735033 0.475829,2.243823 0.400895,0.504559 0.97905,0.743505 1.733426,0.717626 0.754071,-0.02587 1.375234,-0.306266 1.855275,-0.848165 0.483722,-0.545477 0.753174,-1.318455 0.803217,-2.320224 z"
         style="stroke-width:0.26458332"
         id="path3827"
         inkscape:connector-curvature="0"
         inkscape:original-d="m 63.922135,38.287515 q 0.470256,0.516765 0.718303,1.266073 0.253214,0.749308 0.253214,1.700154 0,0.950847 -0.258382,1.705323 -0.253214,0.749308 -0.713135,1.250569 -0.475423,0.521932 -1.126546,0.785482 -0.645955,0.26355 -1.477946,0.26355 -0.81132,0 -1.477946,-0.268718 -0.661458,-0.268717 -1.126546,-0.780314 -0.465088,-0.511596 -0.718302,-1.255737 -0.248047,-0.744141 -0.248047,-1.700155 0,-0.940511 0.248047,-1.684651 0.248047,-0.749309 0.72347,-1.281576 0.454752,-0.506429 1.126546,-0.775146 0.676961,-0.268718 1.472778,-0.268718 0.826823,0 1.483114,0.273885 0.661458,0.268718 1.121378,0.769979 z m -0.09302,2.966227 q 0,-1.498616 -0.671794,-2.309936 -0.671793,-0.816488 -1.834513,-0.816488 -1.173055,0 -1.844849,0.816488 -0.666626,0.81132 -0.666626,2.309936 0,1.51412 0.682129,2.320272 0.682129,0.800985 1.829346,0.800985 1.147217,0 1.824178,-0.800985 0.682129,-0.806152 0.682129,-2.320272 z" />
      <path
         d="m 72.732648,41.149545 c -0.422093,0.194088 -0.88379,0.362223 -1.384824,0.505603 -0.497327,0.139843 -0.977225,0.207844 -1.437577,0.205395 -0.593455,-0.0032 -1.133103,-0.08795 -1.617792,-0.253633 -0.484859,-0.16574 -0.891022,-0.412482 -1.219552,-0.740941 -0.331857,-0.332 -0.578923,-0.745403 -0.744347,-1.24211 -0.16535,-0.500431 -0.233286,-1.084722 -0.209842,-1.75702 0.04286,-1.229169 0.40641,-2.211192 1.090694,-2.948617 0.687118,-0.740513 1.610839,-1.14017 2.792766,-1.183505 0.41278,-0.01514 0.835514,0.02418 1.269428,0.119124 0.436858,0.09127 0.910915,0.258658 1.422628,0.504349 0.01857,0.418105 0.0341,0.836232 0.04657,1.254382 -0.02972,5.99e-4 -0.05945,0.0012 -0.08917,0.0018 -0.104823,-0.08324 -0.256753,-0.192159 -0.455192,-0.325945 -0.198461,-0.133801 -0.392699,-0.244069 -0.582635,-0.331013 -0.229906,-0.103588 -0.490039,-0.186315 -0.78036,-0.248175 -0.28717,-0.06548 -0.612174,-0.09223 -0.97572,-0.08054 -0.818297,0.02632 -1.462342,0.330696 -1.945223,0.904499 -0.479791,0.570485 -0.73204,1.328586 -0.75885,2.276101 -0.02832,1.000774 0.192093,1.771757 0.682865,2.325814 0.489823,0.549339 1.179658,0.825236 2.070982,0.825822 0.326401,2.15e-4 0.652633,-0.03225 0.978129,-0.09792 0.328959,-0.06567 0.617407,-0.150573 0.865406,-0.255352 0.02092,-0.646063 0.0349,-1.292078 0.04193,-1.938045 -0.671537,0.0033 -1.342996,0.0088 -2.014353,0.01645 0.0066,-0.304688 0.01179,-0.609367 0.0156,-0.914038 0.996032,-0.01597 1.992292,-0.02752 2.98871,-0.03476 0.0058,1.137255 -0.01093,2.274676 -0.05026,3.412264 z"
         style="stroke-width:0.26458332"
         id="path3829"
         inkscape:connector-curvature="0"
         inkscape:original-d="m 73.199086,44.530028 q -0.630452,0.289388 -1.37976,0.506429 -0.744141,0.211873 -1.441773,0.211873 -0.89917,0 -1.648478,-0.248046 -0.749308,-0.248047 -1.276408,-0.744141 -0.532267,-0.501261 -0.821655,-1.25057 -0.289388,-0.754476 -0.289388,-1.762166 0,-1.844849 1.07487,-2.909383 1.080037,-1.069702 2.961059,-1.069702 0.656291,0 1.33842,0.160197 0.687296,0.155029 1.477946,0.532267 v 1.214396 h -0.09302 q -0.160197,-0.124023 -0.465088,-0.325561 -0.304891,-0.201538 -0.599446,-0.335897 -0.356568,-0.160197 -0.81132,-0.26355 -0.449585,-0.10852 -1.023194,-0.10852 -1.29191,0 -2.046386,0.83199 -0.749309,0.826823 -0.749309,2.242757 0,1.493449 0.785482,2.32544 0.785482,0.826822 2.139404,0.826822 0.496094,0 0.98702,-0.09819 0.496094,-0.09819 0.868164,-0.253214 v -1.88619 h -2.061889 v -0.89917 h 3.074747 z" />
    </g>
  </g>
</svg>
