<?xml version="1.0" encoding="UTF-8" standalone="no"?>
<!-- Created with Inkscape (http://www.inkscape.org/) -->

<svg
   xmlns:dc="http://purl.org/dc/elements/1.1/"
   xmlns:cc="http://creativecommons.org/ns#"
   xmlns:rdf="http://www.w3.org/1999/02/22-rdf-syntax-ns#"
   xmlns:svg="http://www.w3.org/2000/svg"
   xmlns="http://www.w3.org/2000/svg"
   xmlns:sodipodi="http://sodipodi.sourceforge.net/DTD/sodipodi-0.dtd"
   xmlns:inkscape="http://www.inkscape.org/namespaces/inkscape"
   width="54.789959mm"
   height="9.9618435mm"
   viewBox="0 0 54.789959 9.9618434"
   version="1.1"
   id="svg44"
   inkscape:version="0.92.4 (5da689c313, 2019-01-14)"
   sodipodi:docname="projects.svg">
  <defs
     id="defs38">
    <inkscape:path-effect
       effect="envelope"
       id="path-effect75"
       is_visible="true"
       yy="true"
       xx="false"
       bendpath1="M 41.043817,41.607553 C 115.99628,28.184471 179.49329,30.435358 242.8418,40.754931"
       bendpath2="M 242.8418,40.754931 V 71.0479"
       bendpath3="m 35.333984,71.0479 c 72.343236,-11.358887 141.498976,-9.779256 207.507816,0"
       bendpath4="M 35.333984,40.754931 V 71.0479"
       bendpath1-nodetypes="cc"
       bendpath3-nodetypes="cc" />
    <inkscape:path-effect
       effect="envelope"
       id="path-effect3832"
       is_visible="true"
       yy="true"
       xx="false"
       bendpath1="M 19.425912,37.404962 C 36.318068,33.834199 53.172564,34.283961 73.199086,37.243651"
       bendpath2="m 73.199086,37.243651 v 8.015015"
       bendpath3="m 17.737874,45.258666 c 16.132981,-2.969678 34.478072,-1.671703 55.461212,0"
       bendpath4="m 17.737874,37.243651 v 8.015015"
       bendpath1-nodetypes="cc"
       bendpath3-nodetypes="cc" />
    <filter
       inkscape:label="Opacity"
       style="color-interpolation-filters:sRGB;"
       id="filter127">
      <feColorMatrix
         values="1 0 0 0 0 0 1 0 0 0 0 0 1 0 0 0 0 0 5 -1 "
         result="colormatrix"
         id="feColorMatrix123" />
      <feComposite
         in2="colormatrix"
         operator="arithmetic"
         k2="0.21"
         result="composite"
         id="feComposite125" />
    </filter>
  </defs>
  <sodipodi:namedview
     id="base"
     pagecolor="#ffffff"
     bordercolor="#666666"
     borderopacity="1.0"
     inkscape:pageopacity="0.0"
     inkscape:pageshadow="2"
     inkscape:zoom="3.959798"
     inkscape:cx="99.653218"
     inkscape:cy="7.8725425"
     inkscape:document-units="mm"
     inkscape:current-layer="layer1"
     showgrid="false"
     inkscape:window-width="1920"
     inkscape:window-height="1057"
     inkscape:window-x="-8"
     inkscape:window-y="-8"
     inkscape:window-maximized="1" />
  <metadata
     id="metadata41">
    <rdf:RDF>
      <cc:Work
         rdf:about="">
        <dc:format>image/svg+xml</dc:format>
        <dc:type
           rdf:resource="http://purl.org/dc/dcmitype/StillImage" />
        <dc:title />
      </cc:Work>
    </rdf:RDF>
  </metadata>
  <g
     inkscape:label="Layer 1"
     inkscape:groupmode="layer"
     id="layer1"
     transform="translate(-9.3958364,-8.6612033)">
    <g
       aria-label="PROJECTS"
       transform="scale(0.26458333)"
       style="font-style:normal;font-weight:normal;font-size:40px;line-height:1.25;font-family:sans-serif;letter-spacing:1px;word-spacing:0px;fill:#000000;fill-opacity:1;stroke:none"
       id="flowRoot46"
       inkscape:path-effect="#path-effect75">
      <path
         d="m 57.90645,47.783354 c -0.208942,1.265628 -0.628884,2.47293 -1.260758,3.622 -0.616982,1.13458 -1.391964,2.152739 -2.324393,3.056313 -1.158049,1.122213 -2.456231,2.027055 -3.891551,2.718857 -1.433544,0.679313 -3.174172,1.169103 -5.221833,1.481042 -1.266471,0.192933 -2.532443,0.389726 -3.797892,0.590376 -0.686204,3.52215 -1.399982,7.04861 -2.141333,10.579379 -1.278725,0.193335 -2.556909,0.390601 -3.834533,0.591808 2.02398,-9.454008 3.850958,-18.874892 5.480934,-28.26265 2.532162,-0.452451 5.067183,-0.889376 7.604854,-1.310564 1.683214,-0.279369 3.08671,-0.363474 4.209887,-0.256565 1.125268,0.09421 2.093544,0.378618 2.904247,0.851978 0.95629,0.563006 1.640398,1.346462 2.048522,2.3466 0.420681,0.998073 0.498116,2.330106 0.223849,3.991426 z m -3.940163,0.662131 c 0.166408,-0.981732 0.137785,-1.810726 -0.08322,-2.485459 -0.221016,-0.674762 -0.641939,-1.188364 -1.260939,-1.539108 -0.541152,-0.300812 -1.189178,-0.472061 -1.943887,-0.513211 -0.739882,-0.05585 -1.702552,0.0119 -2.887211,0.205737 -1.235232,0.202115 -2.46988,0.407945 -3.703919,0.61747 -0.654276,3.763279 -1.340242,7.531512 -2.0579,11.304698 1.063858,-0.171211 2.128094,-0.339693 3.192695,-0.505441 1.530585,-0.238297 2.798039,-0.559552 3.803833,-0.970561 1.007702,-0.423577 1.864604,-0.977684 2.56999,-1.665062 0.70758,-0.70006 1.240365,-1.40529 1.599233,-2.116735 0.371557,-0.713241 0.628662,-1.49068 0.771326,-2.332328 z"
         id="path58"
         inkscape:original-d="m 54.357422,50.149463 q 0,1.933593 -0.683594,3.59375 -0.664062,1.640625 -1.875,2.851562 -1.503906,1.503906 -3.554687,2.265625 -2.050782,0.742188 -5.175782,0.742188 H 39.201172 V 70.442431 H 35.333984 V 41.3604 h 7.890625 q 2.617188,0 4.433594,0.449219 1.816406,0.429687 3.222656,1.367187 1.660157,1.113282 2.558594,2.773438 0.917969,1.660156 0.917969,4.199219 z m -4.023438,0.09766 q 0,-1.503906 -0.527343,-2.617188 -0.527344,-1.113281 -1.601563,-1.816406 -0.9375,-0.605469 -2.148437,-0.859375 -1.191407,-0.273437 -3.027344,-0.273437 H 39.201172 V 56.30181 h 3.261719 q 2.34375,0 3.808593,-0.410156 1.464844,-0.429687 2.382813,-1.347656 0.917969,-0.9375 1.289062,-1.972656 0.390625,-1.035157 0.390625,-2.324219 z"
         inkscape:connector-curvature="0" />
      <path
         d="m 84.430805,64.635329 c -1.672544,0.133223 -3.344584,0.272858 -5.016073,0.418927 -2.609011,-3.575906 -5.182094,-7.073447 -7.772285,-10.555311 -1.791593,0.197257 -3.582494,0.402218 -5.37264,0.614874 -0.635633,3.811128 -1.302042,7.625253 -1.999226,11.442375 -1.284884,0.142675 -2.569362,0.289212 -3.853411,0.439621 1.790686,-9.580746 3.384596,-19.140863 4.781732,-28.68035 2.630273,-0.362665 5.26289,-0.708067 7.897621,-1.035973 1.705609,-0.212271 3.112759,-0.266099 4.219692,-0.16677 1.108904,0.08643 2.0807,0.370766 2.915179,0.852045 0.93803,0.546228 1.626179,1.296585 2.061594,2.247625 0.449782,0.936579 0.570899,2.178853 0.356704,3.722535 -0.28996,2.08971 -1.057631,3.891935 -2.302946,5.409566 -1.243641,1.50494 -2.833636,2.703615 -4.767632,3.606709 2.950149,3.851191 5.875099,7.716771 8.851691,11.684127 z M 78.654079,44.619018 c 0.118424,-0.828402 0.07511,-1.544099 -0.128298,-2.145985 -0.188873,-0.616209 -0.583405,-1.107627 -1.182155,-1.472389 -0.493555,-0.313084 -1.104593,-0.497229 -1.832897,-0.551726 -0.726479,-0.0674 -1.59673,-0.04019 -2.610606,0.08305 -1.476552,0.179483 -2.952498,0.364411 -4.4278,0.554749 -0.531666,3.611009 -1.091067,7.224719 -1.678204,10.84113 1.279322,-0.154855 2.559041,-0.30575 3.839131,-0.452678 1.203512,-0.138137 2.269384,-0.358297 3.197786,-0.663582 0.930276,-0.318169 1.753345,-0.800832 2.468008,-1.450165 0.65762,-0.605028 1.171826,-1.27083 1.542822,-1.998439 0.385635,-0.741838 0.656759,-1.656529 0.812213,-2.743966 z"
         id="path60"
         inkscape:original-d="m 84.537109,70.442431 h -5.019531 l -9.726562,-11.5625 h -5.449219 v 11.5625 H 60.474609 V 41.3604 h 8.144532 q 2.636718,0 4.394531,0.351563 1.757812,0.332031 3.164062,1.210937 1.582032,0.996094 2.460938,2.519531 0.898437,1.503907 0.898437,3.828125 0,3.144532 -1.582031,5.273438 -1.582031,2.109375 -4.355469,3.183594 z M 75.494141,49.543994 q 0,-1.25 -0.449219,-2.207031 -0.429688,-0.976563 -1.445313,-1.640625 -0.839843,-0.566407 -1.992187,-0.78125 -1.152344,-0.234375 -2.714844,-0.234375 h -4.550781 v 10.976562 h 3.90625 q 1.835937,0 3.203125,-0.3125 1.367187,-0.332031 2.324219,-1.210937 0.878906,-0.820313 1.289062,-1.875 0.429688,-1.074219 0.429688,-2.714844 z"
         inkscape:connector-curvature="0" />
      <path
         d="m 113.97671,36.99676 c 1.01802,1.258366 1.73213,2.833465 2.13699,4.719188 0.41759,1.884947 0.49249,4.045082 0.21625,6.4736 -0.27635,2.429437 -0.85276,4.619964 -1.73106,6.572316 -0.86387,1.93885 -1.95618,3.56951 -3.27583,4.896367 -1.36533,1.381199 -2.91644,2.442502 -4.64987,3.189926 -1.72043,0.746839 -3.63336,1.172876 -5.73428,1.286501 -2.04855,0.110793 -3.864595,-0.120442 -5.444606,-0.695806 -1.567314,-0.576307 -2.837363,-1.467867 -3.813317,-2.679132 -0.9761,-1.211445 -1.639481,-2.729533 -1.99804,-4.559897 -0.34566,-1.831466 -0.34476,-3.950392 -0.0088,-6.363208 0.330387,-2.372691 0.924257,-4.524491 1.782329,-6.454572 0.859747,-1.943052 1.955691,-3.638389 3.290451,-5.081544 1.27582,-1.373523 2.776689,-2.469393 4.505684,-3.279852 1.741825,-0.811526 3.588005,-1.289293 5.542915,-1.426177 2.03106,-0.142216 3.8154,0.08873 5.35478,0.689324 1.55327,0.586585 2.82949,1.492694 3.82639,2.712966 z m -1.62006,11.364751 c 0.44866,-3.820357 -0.0583,-6.731617 -1.48546,-8.705655 -1.42696,-1.988967 -3.57266,-2.892666 -6.43464,-2.697634 -2.88801,0.196807 -5.277566,1.408835 -7.188059,3.603286 -1.896342,2.180614 -3.094941,5.169548 -3.607469,8.956619 -0.518435,3.830722 -0.09133,6.695779 1.328283,8.623536 1.420078,1.912769 3.573618,2.783671 6.461425,2.622761 2.88713,-0.160873 5.32087,-1.28829 7.28137,-3.40982 1.97506,-2.1352 3.19074,-5.128926 3.64455,-8.993093 z"
         id="path62"
         inkscape:original-d="m 110.9668,44.700244 q 1.77734,1.953125 2.71484,4.785156 0.95703,2.832031 0.95703,6.425781 0,3.59375 -0.97656,6.445313 -0.95703,2.832031 -2.69531,4.726562 -1.79688,1.972657 -4.25782,2.96875 -2.4414,0.996094 -5.58593,0.996094 -3.066409,0 -5.585941,-1.015625 -2.5,-1.015625 -4.257812,-2.949219 -1.757813,-1.933593 -2.714844,-4.746093 -0.9375,-2.8125 -0.9375,-6.425782 0,-3.554687 0.9375,-6.367187 0.9375,-2.832031 2.734375,-4.84375 1.71875,-1.914063 4.257813,-2.929688 2.558593,-1.015625 5.566409,-1.015625 3.125,0 5.60547,1.035157 2.5,1.015625 4.23828,2.910156 z m -0.35157,11.210937 q 0,-5.664062 -2.53906,-8.730468 -2.53906,-3.085938 -6.93359,-3.085938 -4.433596,0 -6.972658,3.085938 -2.519531,3.066406 -2.519531,8.730468 0,5.722657 2.578125,8.769532 2.578125,3.027343 6.914064,3.027343 4.33594,0 6.89453,-3.027343 2.57812,-3.046875 2.57812,-8.769532 z"
         inkscape:connector-curvature="0" />
      <path
         d="m 133.20331,54.846967 c -0.26327,2.603018 -1.24794,4.611077 -2.96264,6.036126 -1.70157,1.42482 -3.87003,2.154516 -6.49669,2.207829 -0.62746,0.01273 -1.45563,-0.02911 -2.48673,-0.12315 -1.03242,-0.08078 -1.89077,-0.189567 -2.57658,-0.328527 0.14778,-1.223261 0.29389,-2.446483 0.43835,-3.669665 0.0715,-0.0021 0.14299,-0.0042 0.21448,-0.0063 0.5113,0.169713 1.14508,0.343007 1.90267,0.521354 0.75741,0.178307 1.54635,0.258389 2.36617,0.240237 1.19747,-0.02651 2.16266,-0.183426 2.89598,-0.474458 0.74618,-0.291211 1.31588,-0.69725 1.70943,-1.219803 0.40794,-0.535974 0.69787,-1.188966 0.87012,-1.959564 0.1852,-0.770748 0.33043,-1.660021 0.43555,-2.667893 0.601,-5.761962 1.17466,-11.523585 1.72101,-17.284871 -2.00828,0.04179 -4.01639,0.09436 -6.02422,0.157632 0.10342,-1.045573 0.20574,-2.091124 0.30695,-3.136654 3.26345,-0.106488 6.52782,-0.184158 9.7927,-0.232575 -0.66465,7.313143 -1.36683,14.62656 -2.10655,21.94025 z"
         id="path64"
         inkscape:original-d="m 132.43555,62.883838 q 0,3.828125 -2.34375,5.898437 -2.32422,2.070313 -6.25,2.070313 -0.9375,0 -2.5,-0.175782 -1.5625,-0.15625 -2.61719,-0.390625 V 66.6729 h 0.21484 q 0.80078,0.273438 1.97266,0.566406 1.17187,0.292969 2.40234,0.292969 1.79688,0 2.85157,-0.410156 1.07421,-0.410156 1.58203,-1.171875 0.52734,-0.78125 0.66406,-1.914063 0.15625,-1.132812 0.15625,-2.617187 V 44.446338 h -6.15234 V 41.3604 h 10.01953 z"
         inkscape:connector-curvature="0" />
      <path
         d="m 160.19078,62.897631 c -5.51951,-0.179245 -11.04066,-0.293039 -16.56186,-0.340418 -0.88473,-0.0076 -1.76947,-0.01352 -2.65421,-0.01772 0.93522,-9.897168 1.82967,-19.794685 2.68337,-29.692554 0.86242,4.66e-4 1.72485,0.003 2.58728,0.0076 5.38205,0.02864 10.76284,0.138284 16.1409,0.325107 -0.0891,1.17046 -0.17785,2.340972 -0.26632,3.511534 -4.99126,-0.17179 -9.98428,-0.27857 -14.9779,-0.317567 -0.23044,2.713343 -0.46294,5.426668 -0.69748,8.139977 5.02179,0.04268 10.04386,0.149771 15.06503,0.319136 -0.0871,1.170797 -0.17381,2.341645 -0.26026,3.512544 -5.03613,-0.168493 -10.07302,-0.275902 -15.10944,-0.32035 -0.32029,3.677577 -0.64435,7.355122 -0.97218,11.032635 5.09214,0.05073 10.18448,0.159835 15.27576,0.326267 -0.0845,1.171217 -0.16876,2.342485 -0.25269,3.513804 z"
         id="path66"
         inkscape:original-d="M 160.13477,70.442431 H 140.97461 V 41.3604 h 19.16016 v 3.4375 H 144.8418 v 7.96875 h 15.29297 v 3.4375 H 144.8418 v 10.800781 h 15.29297 z"
         inkscape:connector-curvature="0" />
      <path
         d="m 189.94386,62.340128 c -0.72767,0.264288 -1.39065,0.514988 -1.98779,0.751158 -0.58449,0.237255 -1.35155,0.475123 -2.30321,0.715887 -0.80585,0.197495 -1.68218,0.35168 -2.62918,0.463343 -0.93456,0.125786 -1.96319,0.154165 -3.08548,0.08626 -2.11422,-0.127916 -4.02415,-0.533887 -5.72538,-1.223361 -1.68755,-0.702128 -3.12996,-1.725429 -4.32468,-3.075125 -1.17044,-1.321971 -2.04016,-2.966656 -2.61021,-4.939138 -0.56912,-1.985627 -0.76217,-4.267454 -0.58375,-6.848112 0.16915,-2.44666 0.65692,-4.621592 1.4568,-6.519307 0.79996,-1.897888 1.87195,-3.482802 3.21271,-4.74862 1.29986,-1.227977 2.8247,-2.133721 4.57373,-2.711395 1.76193,-0.576998 3.68276,-0.796467 5.76487,-0.654264 1.5236,0.104059 3.02795,0.405832 4.51522,0.904481 1.5002,0.499689 3.14776,1.308417 4.94875,2.429234 -0.0874,1.554758 -0.17245,3.109778 -0.25525,4.665058 -0.0957,-0.0078 -0.1913,-0.01564 -0.28695,-0.02343 -1.49584,-1.491294 -2.99197,-2.606251 -4.49578,-3.344436 -1.50354,-0.738052 -3.13164,-1.167815 -4.88783,-1.28546 -1.43802,-0.09633 -2.75201,0.06723 -3.94318,0.488519 -1.17748,0.408758 -2.25321,1.100654 -3.22733,2.073956 -0.94673,0.948026 -1.72168,2.175007 -2.32291,3.678012 -0.58748,1.4902 -0.94887,3.2339 -1.07977,5.227706 -0.13706,2.087546 0.0173,3.895034 0.46523,5.424186 0.46084,1.529772 1.09783,2.787909 1.91044,3.776609 0.8491,1.03055 1.86546,1.817383 3.04756,2.36309 1.19576,0.533095 2.47108,0.840162 3.82326,0.922688 1.85933,0.113478 3.61733,-0.09821 5.27026,-0.636696 1.65313,-0.538554 3.21335,-1.402744 4.6802,-2.593986 0.0906,0.0069 0.18115,0.01384 0.27173,0.02078 -0.0662,1.537198 -0.13028,3.074651 -0.19208,4.612357 z"
         id="path68"
         inkscape:original-d="m 189.74805,68.333056 q -1.07422,0.46875 -1.95313,0.878907 -0.85937,0.410156 -2.26562,0.859375 -1.19141,0.371093 -2.59766,0.625 -1.38672,0.273437 -3.06641,0.273437 -3.16406,0 -5.76171,-0.878906 -2.57813,-0.898438 -4.49219,-2.792969 -1.875,-1.855469 -2.92969,-4.707031 -1.05469,-2.871094 -1.05469,-6.660156 0,-3.59375 1.01563,-6.425782 1.01562,-2.832031 2.92969,-4.785156 1.85546,-1.894531 4.47265,-2.890625 2.63672,-0.996094 5.83985,-0.996094 2.34375,0 4.66796,0.566407 2.34375,0.566406 5.19532,1.992187 v 4.589844 h -0.29297 q -2.40235,-2.011719 -4.76563,-2.929688 -2.36328,-0.917968 -5.05859,-0.917968 -2.20703,0 -3.98438,0.722656 -1.75781,0.703125 -3.14453,2.207031 -1.34765,1.464844 -2.10937,3.710938 -0.74219,2.226562 -0.74219,5.15625 0,3.066406 0.82031,5.273437 0.83985,2.207031 2.14844,3.59375 1.36719,1.445313 3.18359,2.148438 1.83594,0.683593 3.86719,0.683593 2.79297,0 5.23438,-0.957031 2.4414,-0.957031 4.57031,-2.871094 h 0.27344 z"
         inkscape:connector-curvature="0" />
      <path
         d="m 217.66207,41.161262 c -3.37119,-0.419139 -6.74523,-0.813028 -10.12175,-1.180797 -0.3656,8.643802 -0.64091,17.29847 -0.82591,25.964002 -1.28742,-0.126456 -2.57519,-0.249472 -3.86327,-0.369035 0.2194,-8.675156 0.52546,-17.340056 0.91815,-25.994698 -3.3783,-0.348206 -6.75894,-0.669968 -10.14155,-0.964416 0.0621,-1.163713 0.12551,-2.327272 0.19028,-3.490677 8.00287,0.706517 15.99323,1.568317 23.96616,2.572661 -0.0425,1.154096 -0.0832,2.308417 -0.12211,3.46296 z"
         id="path70"
         inkscape:original-d="m 216.99805,44.7979 h -10.39063 v 25.644531 h -3.86719 V 44.7979 h -10.39062 v -3.4375 h 24.64844 z"
         inkscape:connector-curvature="0" />
      <path
         d="m 242.71728,62.081644 c 0.007,1.13391 -0.24802,2.214805 -0.76643,3.244514 -0.50561,1.031755 -1.22474,1.8632 -2.16016,2.496825 -1.02514,0.685759 -2.22771,1.166415 -3.60882,1.444326 -1.36816,0.279711 -3.02451,0.288783 -4.96868,0.03199 -2.08682,-0.275638 -3.96709,-0.711398 -5.63888,-1.313428 -1.65843,-0.600275 -3.34766,-1.389903 -5.06341,-2.368877 0.015,-1.629436 0.0336,-3.25841 0.0558,-4.886922 0.0902,0.01087 0.1805,0.02175 0.27076,0.03265 1.44064,1.410602 3.1168,2.568273 5.02496,3.479287 1.90785,0.910861 3.70476,1.478997 5.38394,1.703451 2.37759,0.317809 4.22152,0.124275 5.53265,-0.590717 1.3241,-0.713203 1.97937,-1.816137 1.97551,-3.317509 -0.003,-1.291784 -0.31793,-2.290911 -0.94482,-2.996101 -0.61394,-0.703154 -1.55373,-1.317558 -2.81866,-1.838455 -0.95838,-0.398627 -1.99988,-0.76192 -3.1244,-1.088509 -1.11187,-0.324849 -2.29333,-0.702818 -3.54412,-1.13314 -2.52785,-0.890614 -4.39186,-2.066938 -5.592,-3.548497 -1.18656,-1.492366 -1.75063,-3.305003 -1.69353,-5.442739 0.0654,-2.450275 1.13115,-4.330387 3.17366,-5.61799 2.0436,-1.301136 4.59386,-1.731956 7.65331,-1.281749 1.97698,0.29092 3.78493,0.761839 5.42597,1.407398 1.64098,0.645537 3.09354,1.358325 4.35725,2.133912 -0.0205,1.521166 -0.0377,3.042836 -0.0516,4.56501 -0.0885,-0.01397 -0.17707,-0.02793 -0.26561,-0.04187 -1.06591,-1.105704 -2.47208,-2.102377 -4.21772,-2.982397 -1.73322,-0.891327 -3.513,-1.471616 -5.34489,-1.738003 -2.00837,-0.29205 -3.6371,-0.08812 -4.88665,0.605808 -1.2367,0.695573 -1.87498,1.727802 -1.90696,3.088796 -0.0286,1.217673 0.25596,2.213611 0.85345,2.989035 0.59776,0.775773 1.66449,1.448734 3.20171,2.026756 0.81541,0.295925 1.96744,0.676818 3.47107,1.152239 1.50054,0.474448 2.77415,0.927777 3.8169,1.355047 2.11136,0.884595 3.70304,1.99463 4.77471,3.317025 1.07199,1.322793 1.61363,3.028331 1.62569,5.112836 z"
         id="path72"
         inkscape:original-d="m 242.8418,62.14165 q 0,1.699219 -0.80078,3.359375 -0.78125,1.660156 -2.20704,2.8125 -1.5625,1.25 -3.65234,1.953125 -2.07031,0.703125 -5,0.703125 -3.14453,0 -5.66406,-0.585937 -2.5,-0.585938 -5.09766,-1.738282 v -4.84375 h 0.27344 q 2.20703,1.835938 5.09766,2.832032 2.89062,0.996093 5.42968,0.996093 3.59375,0 5.58594,-1.347656 2.01172,-1.347656 2.01172,-3.59375 0,-1.933594 -0.95703,-2.851562 -0.9375,-0.917969 -2.8711,-1.425782 -1.46484,-0.390625 -3.18359,-0.644531 -1.69922,-0.253906 -3.61328,-0.644531 -3.86719,-0.820313 -5.74219,-2.792969 -1.85547,-1.992187 -1.85547,-5.175781 0,-3.652344 3.08594,-5.976563 3.08594,-2.34375 7.83203,-2.34375 3.06641,0 5.625,0.585938 2.5586,0.585937 4.53125,1.445312 v 4.570313 h -0.27344 q -1.66015,-1.40625 -4.375,-2.324219 -2.69531,-0.9375 -5.52734,-0.9375 -3.10547,0 -5,1.289063 -1.875,1.289062 -1.875,3.320312 0,1.816406 0.9375,2.851563 0.9375,1.035156 3.30078,1.582031 1.25,0.273437 3.55469,0.664062 2.30469,0.390625 3.90625,0.800782 3.24219,0.859375 4.88281,2.597656 1.64063,1.738281 1.64063,4.863281 z"
         inkscape:connector-curvature="0" />
    </g>
  </g>
</svg>
