<?xml version="1.0" encoding="UTF-8" standalone="no"?>
<!-- Created with Inkscape (http://www.inkscape.org/) -->

<svg
   xmlns:dc="http://purl.org/dc/elements/1.1/"
   xmlns:cc="http://creativecommons.org/ns#"
   xmlns:rdf="http://www.w3.org/1999/02/22-rdf-syntax-ns#"
   xmlns:svg="http://www.w3.org/2000/svg"
   xmlns="http://www.w3.org/2000/svg"
   xmlns:sodipodi="http://sodipodi.sourceforge.net/DTD/sodipodi-0.dtd"
   xmlns:inkscape="http://www.inkscape.org/namespaces/inkscape"
   width="54.804939mm"
   height="12.856445mm"
   viewBox="0 0 54.80494 12.856446"
   version="1.1"
   id="svg44"
   inkscape:version="0.92.4 (5da689c313, 2019-01-14)"
   sodipodi:docname="projects.svg">
  <defs
     id="defs38">
    <inkscape:path-effect
       effect="envelope"
       id="path-effect3794"
       is_visible="true"
       yy="true"
       xx="false"
       bendpath1="M 44.930433,61.511643 C 109.41605,44.43591 176.39212,44.137711 242.8418,40.754931"
       bendpath2="M 242.8418,40.754931 V 71.0479"
       bendpath3="M 35.586522,90.529231 C 106.45483,73.087618 173.7659,73.552792 242.8418,71.0479"
       bendpath4="M 35.333984,40.754931 V 71.0479"
       bendpath1-nodetypes="cc"
       bendpath3-nodetypes="cc" />
    <inkscape:path-effect
       effect="envelope"
       id="path-effect75"
       is_visible="true"
       yy="true"
       xx="false"
       bendpath1="M 41.043817,41.607553 C 115.99628,28.184471 179.49329,30.435358 242.8418,40.754931"
       bendpath2="M 242.8418,40.754931 V 71.0479"
       bendpath3="m 35.333984,71.0479 c 72.343236,-11.358887 141.498976,-9.779256 207.507816,0"
       bendpath4="M 35.333984,40.754931 V 71.0479"
       bendpath1-nodetypes="cc"
       bendpath3-nodetypes="cc" />
    <inkscape:path-effect
       effect="envelope"
       id="path-effect3832"
       is_visible="true"
       yy="true"
       xx="false"
       bendpath1="M 19.425912,37.404962 C 36.318068,33.834199 53.172564,34.283961 73.199086,37.243651"
       bendpath2="m 73.199086,37.243651 v 8.015015"
       bendpath3="m 17.737874,45.258666 c 16.132981,-2.969678 34.478072,-1.671703 55.461212,0"
       bendpath4="m 17.737874,37.243651 v 8.015015"
       bendpath1-nodetypes="cc"
       bendpath3-nodetypes="cc" />
    <filter
       inkscape:label="Opacity"
       style="color-interpolation-filters:sRGB"
       id="filter127">
      <feColorMatrix
         values="1 0 0 0 0 0 1 0 0 0 0 0 1 0 0 0 0 0 5 -1 "
         result="colormatrix"
         id="feColorMatrix123" />
      <feComposite
         in2="colormatrix"
         operator="arithmetic"
         k2="0.21"
         result="composite"
         id="feComposite125"
         k1="0"
         k3="0"
         k4="0" />
    </filter>
  </defs>
  <sodipodi:namedview
     id="base"
     pagecolor="#ffffff"
     bordercolor="#666666"
     borderopacity="1.0"
     inkscape:pageopacity="0.0"
     inkscape:pageshadow="2"
     inkscape:zoom="5.6"
     inkscape:cx="89.360842"
     inkscape:cy="8.8178668"
     inkscape:document-units="mm"
     inkscape:current-layer="layer1"
     showgrid="false"
     inkscape:window-width="1920"
     inkscape:window-height="1057"
     inkscape:window-x="-8"
     inkscape:window-y="-8"
     inkscape:window-maximized="1" />
  <metadata
     id="metadata41">
    <rdf:RDF>
      <cc:Work
         rdf:about="">
        <dc:format>image/svg+xml</dc:format>
        <dc:type
           rdf:resource="http://purl.org/dc/dcmitype/StillImage" />
        <dc:title />
      </cc:Work>
    </rdf:RDF>
  </metadata>
  <g
     inkscape:label="Layer 1"
     inkscape:groupmode="layer"
     id="layer1"
     transform="translate(-9.4620709,-10.920716)">
    <g
       aria-label="PROJECTS"
       transform="scale(0.26458333)"
       style="font-style:normal;font-weight:normal;font-size:40px;line-height:1.25;font-family:sans-serif;letter-spacing:1px;word-spacing:0px;fill:#000000;fill-opacity:1;stroke:none"
       id="flowRoot46"
       inkscape:path-effect="#path-effect3794">
      <path
         d="m 60.129294,66.207408 c -0.353894,1.237183 -0.901357,2.432726 -1.645408,3.588626 -0.72802,1.140811 -1.593503,2.181197 -2.597442,3.124433 -1.246824,1.171437 -2.60284,2.145242 -4.065632,2.926672 -1.459674,0.769274 -3.190874,1.381457 -5.192545,1.851104 -1.237737,0.290407 -2.474256,0.586049 -3.709511,0.88703 -1.106955,3.467131 -2.234557,6.939437 -3.382808,10.416918 -1.259092,0.299345 -2.517038,0.603904 -3.773798,0.91377 3.148477,-9.32613 6.138699,-18.611829 8.970666,-27.857098 2.445187,-0.646789 4.895967,-1.269786 7.351934,-1.870023 1.628749,-0.398065 2.969756,-0.582551 4.020611,-0.560646 1.054747,0.0095 1.937339,0.21564 2.647508,0.615895 0.83713,0.476636 1.389745,1.186113 1.654235,2.123676 0.276753,0.934754 0.186659,2.215897 -0.27781,3.839643 z m -3.850668,0.927913 c 0.28106,-0.961368 0.357556,-1.760812 0.232108,-2.397166 -0.125447,-0.636343 -0.460907,-1.102473 -1.004602,-1.396248 -0.476056,-0.251192 -1.069668,-0.369035 -1.780777,-0.35238 -0.694967,0.0013 -1.617365,0.139457 -2.765221,0.418331 -1.197027,0.29082 -2.392821,0.586956 -3.587337,0.888523 -1.125791,3.70174 -2.275314,7.409428 -3.448568,11.123063 1.036172,-0.254422 2.073257,-0.505017 3.111229,-0.751848 1.49262,-0.354948 2.745203,-0.766255 3.759251,-1.242979 1.017306,-0.48897 1.906221,-1.090978 2.666315,-1.809624 0.763751,-0.731073 1.360338,-1.452866 1.791422,-2.167572 0.443443,-0.71739 0.785202,-1.487834 1.02618,-2.3121 z"
         id="path58"
         inkscape:connector-curvature="0"
         inkscape:original-d="m 54.357422,50.149463 q 0,1.933593 -0.683594,3.59375 -0.664062,1.640625 -1.875,2.851562 -1.503906,1.503906 -3.554687,2.265625 -2.050782,0.742188 -5.175782,0.742188 H 39.201172 V 70.442431 H 35.333984 V 41.3604 h 7.890625 q 2.617188,0 4.433594,0.449219 1.816406,0.429687 3.222656,1.367187 1.660157,1.113282 2.558594,2.773438 0.917969,1.660156 0.917969,4.199219 z m -4.023438,0.09766 q 0,-1.503906 -0.527343,-2.617188 -0.527344,-1.113281 -1.601563,-1.816406 -0.9375,-0.605469 -2.148437,-0.859375 -1.191407,-0.273437 -3.027344,-0.273437 H 39.201172 V 56.30181 h 3.261719 q 2.34375,0 3.808593,-0.410156 1.464844,-0.429687 2.382813,-1.347656 0.917969,-0.9375 1.289062,-1.972656 0.390625,-1.035157 0.390625,-2.324219 z" />
      <path
         d="m 84.225699,80.475538 c -1.661999,0.246319 -3.322858,0.499601 -4.982491,0.760045 -2.260611,-3.218468 -4.44989,-6.380417 -6.60927,-9.537068 -1.762932,0.314271 -3.524024,0.637526 -5.283157,0.970056 -1.025888,3.707233 -2.067373,7.417657 -3.124454,11.131273 -1.272297,0.235447 -2.543708,0.475509 -3.814194,0.720277 2.721581,-9.339861 5.338241,-18.657317 7.84998,-27.952367 2.556395,-0.521938 5.117369,-1.022035 7.682473,-1.501429 1.660238,-0.310283 3.018225,-0.448148 4.070515,-0.420461 1.05593,0.01519 1.958781,0.22901 2.709186,0.639484 0.842945,0.466423 1.424934,1.143224 1.743438,2.026704 0.333965,0.868803 0.319825,2.049664 -0.04828,3.539395 -0.498439,2.017178 -1.425802,3.787955 -2.791104,5.321606 -1.362108,1.521085 -3.030474,2.773781 -5.00527,3.770706 2.481267,3.48504 4.9957,6.971484 7.602632,10.531779 z M 80.475207,61.760473 c 0.202987,-0.801125 0.238087,-1.484054 0.106949,-2.048054 -0.115528,-0.578621 -0.442533,-1.025 -0.979488,-1.337279 -0.441229,-0.269309 -1.009406,-0.407755 -1.70454,-0.414212 -0.691866,-0.01896 -1.532491,0.06208 -2.521425,0.245091 -1.440329,0.26655 -2.87935,0.539518 -4.316988,0.819095 -0.937535,3.511925 -1.889126,7.026726 -2.854774,10.544404 1.254646,-0.238648 2.510312,-0.472508 3.766953,-0.701693 1.181525,-0.215485 2.23911,-0.499397 3.172396,-0.854999 0.936492,-0.368094 1.786076,-0.885883 2.547621,-1.555519 0.701576,-0.623423 1.269957,-1.294861 1.706107,-2.016012 0.451898,-0.735829 0.810695,-1.629058 1.077189,-2.680822 z"
         id="path60"
         inkscape:connector-curvature="0"
         inkscape:original-d="m 84.537109,70.442431 h -5.019531 l -9.726562,-11.5625 h -5.449219 v 11.5625 H 60.474609 V 41.3604 h 8.144532 q 2.636718,0 4.394531,0.351563 1.757812,0.332031 3.164062,1.210937 1.582032,0.996094 2.460938,2.519531 0.898437,1.503907 0.898437,3.828125 0,3.144532 -1.582031,5.273438 -1.582031,2.109375 -4.355469,3.183594 z M 75.494141,49.543994 q 0,-1.25 -0.449219,-2.207031 -0.429688,-0.976563 -1.445313,-1.640625 -0.839843,-0.566407 -1.992187,-0.78125 -1.152344,-0.234375 -2.714844,-0.234375 h -4.550781 v 10.976562 h 3.90625 q 1.835937,0 3.203125,-0.3125 1.367187,-0.332031 2.324219,-1.210937 0.878906,-0.820313 1.289062,-1.875 0.429688,-1.074219 0.429688,-2.714844 z" />
      <path
         d="m 115.59737,52.324899 c 0.89147,1.125561 1.46531,2.567829 1.71581,4.321572 0.26311,1.752307 0.17287,3.78521 -0.28101,6.094094 -0.45414,2.310167 -1.18357,4.41334 -2.19546,6.314128 -0.99644,1.886771 -2.19654,3.498493 -3.60156,4.840482 -1.45413,1.396252 -3.0703,2.50434 -4.84547,3.329801 -1.76206,0.823942 -3.69272,1.359399 -5.78565,1.613158 -2.040682,0.247425 -3.824175,0.155795 -5.344264,-0.279081 -1.50746,-0.43666 -2.692991,-1.193467 -3.557385,-2.275867 -0.864512,-1.082546 -1.390393,-2.479379 -1.583428,-4.195781 -0.180251,-1.718292 0.01122,-3.734995 0.563811,-6.054364 0.543304,-2.280387 1.329729,-4.369103 2.352606,-6.260837 1.025873,-1.904389 2.259245,-3.586799 3.697829,-5.040875 1.374679,-1.384447 2.939416,-2.516298 4.696071,-3.388749 1.76944,-0.874337 3.60624,-1.436159 5.51803,-1.681619 1.98617,-0.255008 3.70002,-0.142271 5.14661,0.333089 1.46136,0.461263 2.62948,1.239942 3.50346,2.330849 z m -2.50011,10.839583 c 0.73739,-3.636361 0.47173,-6.354281 -0.76024,-8.13167 -1.23052,-1.791518 -3.24374,-2.51721 -6.04954,-2.159498 -2.83088,0.360909 -5.26958,1.654238 -7.339097,3.857707 -2.052612,2.187522 -3.509522,5.109652 -4.352288,8.741853 -0.852855,3.675678 -0.677229,6.368444 0.565836,8.100681 1.244816,1.71807 3.309073,2.393535 6.181669,2.043302 2.87261,-0.350235 5.36979,-1.582372 7.46935,-3.718017 2.11654,-2.151107 3.53815,-5.054753 4.28431,-8.734358 z"
         id="path62"
         inkscape:connector-curvature="0"
         inkscape:original-d="m 110.9668,44.700244 q 1.77734,1.953125 2.71484,4.785156 0.95703,2.832031 0.95703,6.425781 0,3.59375 -0.97656,6.445313 -0.95703,2.832031 -2.69531,4.726562 -1.79688,1.972657 -4.25782,2.96875 -2.4414,0.996094 -5.58593,0.996094 -3.066409,0 -5.585941,-1.015625 -2.5,-1.015625 -4.257812,-2.949219 -1.757813,-1.933593 -2.714844,-4.746093 -0.9375,-2.8125 -0.9375,-6.425782 0,-3.554687 0.9375,-6.367187 0.9375,-2.832031 2.734375,-4.84375 1.71875,-1.914063 4.257813,-2.929688 2.558593,-1.015625 5.566409,-1.015625 3.125,0 5.60547,1.035157 2.5,1.015625 4.23828,2.910156 z m -0.35157,11.210937 q 0,-5.664062 -2.53906,-8.730468 -2.53906,-3.085938 -6.93359,-3.085938 -4.433596,0 -6.972658,3.085938 -2.519531,3.066406 -2.519531,8.730468 0,5.722657 2.578125,8.769532 2.578125,3.027343 6.914064,3.027343 4.33594,0 6.89453,-3.027343 2.57812,-3.046875 2.57812,-8.769532 z" />
      <path
         d="m 133.31563,67.847371 c -0.42624,2.467039 -1.53396,4.425285 -3.33529,5.887335 -1.78775,1.460525 -3.99825,2.299901 -6.6202,2.534022 -0.62628,0.05592 -1.4491,0.0745 -2.47022,0.05794 -1.0233,-0.004 -1.87102,-0.04667 -2.5446,-0.129829 0.22907,-1.161976 0.45712,-2.323878 0.68416,-3.485707 0.0712,-0.0069 0.14247,-0.0138 0.21371,-0.02069 0.49689,0.124544 1.11563,0.243935 1.85752,0.359319 0.74174,0.115362 1.52183,0.135907 2.33932,0.06172 1.19409,-0.108357 2.16586,-0.323536 2.91528,-0.648696 0.76228,-0.326248 1.35612,-0.748216 1.78193,-1.267417 0.44103,-0.532856 0.77189,-1.167429 0.99321,-1.904403 0.23422,-0.738055 0.43624,-1.584641 0.60621,-2.540122 0.97161,-5.462182 1.91909,-10.922628 2.84244,-16.381338 -1.97504,0.177706 -3.94953,0.362515 -5.92328,0.554904 0.17751,-0.991836 0.35426,-1.983619 0.53026,-2.975349 3.19876,-0.314293 6.39931,-0.608616 9.6008,-0.885084 -1.11669,6.924789 -2.27377,13.852588 -3.47125,20.783395 z"
         id="path64"
         inkscape:connector-curvature="0"
         inkscape:original-d="m 132.43555,62.883838 q 0,3.828125 -2.34375,5.898437 -2.32422,2.070313 -6.25,2.070313 -0.9375,0 -2.5,-0.175782 -1.5625,-0.15625 -2.61719,-0.390625 V 66.6729 h 0.21484 q 0.80078,0.273438 1.97266,0.566406 1.17187,0.292969 2.40234,0.292969 1.79688,0 2.85157,-0.410156 1.07421,-0.410156 1.58203,-1.171875 0.52734,-0.78125 0.66406,-1.914063 0.15625,-1.132812 0.15625,-2.617187 V 44.446338 h -6.15234 V 41.3604 h 10.01953 z" />
      <path
         d="m 159.80098,73.374694 c -6.40526,0.329033 -12.80804,0.705286 -19.20746,1.145551 1.54221,-9.38135 3.00232,-18.756529 4.38034,-28.125535 6.12447,-0.473647 12.25255,-0.890215 18.38325,-1.265405 -0.1289,1.112258 -0.25913,2.224589 -0.39068,3.336991 -4.92023,0.295044 -9.83883,0.616874 -14.75532,0.97354 -0.36715,2.569568 -0.74066,5.139581 -1.12053,7.710041 4.978,-0.348642 9.95803,-0.661294 14.9396,-0.94616 -0.1377,1.112738 -0.27672,2.225548 -0.41706,3.33843 -5.00759,0.280504 -10.01364,0.589233 -15.0177,0.934455 -0.52232,3.484501 -1.05633,6.969821 -1.60203,10.455959 5.084,-0.334641 10.17002,-0.631181 15.25758,-0.898093 -0.14867,1.113336 -0.29867,2.226745 -0.44999,3.340226 z"
         id="path66"
         inkscape:connector-curvature="0"
         inkscape:original-d="M 160.13477,70.442431 H 140.97461 V 41.3604 h 19.16016 v 3.4375 H 144.8418 v 7.96875 h 15.29297 v 3.4375 H 144.8418 v 10.800781 h 15.29297 z" />
      <path
         d="m 189.703,70.057591 c -0.74439,0.3319 -1.42275,0.642278 -2.03505,0.931318 -0.59925,0.288571 -1.38288,0.596383 -2.3521,0.923955 -0.82053,0.271324 -1.70992,0.507181 -2.66813,0.707987 -0.94646,0.213054 -1.98241,0.340987 -3.10709,0.384571 -2.11849,0.0821 -4.01629,-0.126143 -5.6873,-0.624533 -1.65689,-0.511762 -3.04946,-1.353052 -4.17697,-2.525113 -1.10481,-1.148179 -1.89154,-2.628401 -2.36608,-4.444413 -0.47313,-1.829107 -0.55873,-3.969108 -0.27021,-6.42685 0.27349,-2.329746 0.84454,-4.431349 1.70708,-6.302837 0.86257,-1.871554 1.97561,-3.475534 3.33786,-4.808936 1.32078,-1.293509 2.84825,-2.30925 4.58565,-3.044366 1.75014,-0.735868 3.64584,-1.156565 5.69522,-1.259405 1.49963,-0.07525 2.9778,0.03562 4.43818,0.333212 1.47291,0.296993 3.08952,0.868066 4.85674,1.715587 -0.10492,1.498571 -0.21263,2.997255 -0.32313,4.49605 -0.0948,0.0041 -0.18963,0.0083 -0.28444,0.01243 -1.45738,-1.245612 -2.92112,-2.131484 -4.396,-2.658992 -1.47503,-0.527566 -3.07655,-0.748649 -4.81011,-0.663751 -1.41951,0.06952 -2.72147,0.368807 -3.90976,0.896408 -1.17447,0.514249 -2.25685,1.283356 -3.25052,2.306078 -0.96578,0.995938 -1.7733,2.236302 -2.42302,3.719526 -0.63564,1.469792 -1.06058,3.156083 -1.27194,5.057554 -0.22133,1.991172 -0.14713,3.688521 0.2314,5.096782 0.39133,1.407275 0.96888,2.541334 1.73539,3.403885 0.80092,0.89872 1.78099,1.550984 2.93991,1.957359 1.17315,0.393057 2.43813,0.562749 3.79171,0.508536 1.86124,-0.07455 3.63777,-0.45359 5.32269,-1.139878 1.68489,-0.686281 3.29073,-1.680104 4.81062,-2.983596 0.0906,-0.0034 0.18125,-0.0068 0.27187,-0.01017 -0.1281,1.480424 -0.25892,2.960958 -0.39247,4.4416 z"
         id="path68"
         inkscape:connector-curvature="0"
         inkscape:original-d="m 189.74805,68.333056 q -1.07422,0.46875 -1.95313,0.878907 -0.85937,0.410156 -2.26562,0.859375 -1.19141,0.371093 -2.59766,0.625 -1.38672,0.273437 -3.06641,0.273437 -3.16406,0 -5.76171,-0.878906 -2.57813,-0.898438 -4.49219,-2.792969 -1.875,-1.855469 -2.92969,-4.707031 -1.05469,-2.871094 -1.05469,-6.660156 0,-3.59375 1.01563,-6.425782 1.01562,-2.832031 2.92969,-4.785156 1.85546,-1.894531 4.47265,-2.890625 2.63672,-0.996094 5.83985,-0.996094 2.34375,0 4.66796,0.566407 2.34375,0.566406 5.19532,1.992187 v 4.589844 h -0.29297 q -2.40235,-2.011719 -4.76563,-2.929688 -2.36328,-0.917968 -5.05859,-0.917968 -2.20703,0 -3.98438,0.722656 -1.75781,0.703125 -3.14453,2.207031 -1.34765,1.464844 -2.10937,3.710938 -0.74219,2.226562 -0.74219,5.15625 0,3.066406 0.82031,5.273437 0.83985,2.207031 2.14844,3.59375 1.36719,1.445313 3.18359,2.148438 1.83594,0.683593 3.86719,0.683593 2.79297,0 5.23438,-0.957031 2.4414,-0.957031 4.57031,-2.871094 h 0.27344 z" />
      <path
         d="m 217.89217,45.872401 c -3.34652,0.140726 -6.69314,0.280003 -10.0397,0.420354 -0.3771,8.423601 -0.84803,16.850764 -1.41279,25.28149 -1.29418,0.04012 -2.58835,0.0805 -3.8825,0.121287 0.61195,-8.418688 1.13152,-16.833852 1.55873,-25.245492 -3.3465,0.1415 -6.69289,0.285015 -10.03902,0.433069 0.0753,-1.123384 0.14908,-2.246705 0.22124,-3.369964 7.89455,-0.36075 15.79069,-0.696703 23.68633,-1.041284 -0.029,1.133446 -0.0598,2.26696 -0.0923,3.40054 z"
         id="path70"
         inkscape:connector-curvature="0"
         inkscape:original-d="m 216.99805,44.7979 h -10.39063 v 25.644531 h -3.86719 V 44.7979 h -10.39062 v -3.4375 h 24.64844 z" />
      <path
         d="m 242.89882,62.098301 c -0.007,1.133089 -0.28012,2.263972 -0.82368,3.391325 -0.53061,1.126938 -1.27778,2.091724 -2.24159,2.894059 -1.05605,0.870687 -2.28961,1.563752 -3.69892,2.079353 -1.39627,0.515167 -3.0773,0.804384 -5.03974,0.86812 -2.10594,0.0684 -3.99684,-0.06605 -5.66754,-0.40084 -1.65792,-0.335267 -3.33849,-0.856962 -5.03838,-1.563691 0.0721,-1.600776 0.14076,-3.201416 0.20586,-4.801919 0.0906,-0.0031 0.18127,-0.0061 0.2719,-0.0092 1.41422,1.163905 3.07222,2.044528 4.97319,2.64027 1.90087,0.595714 3.70098,0.865914 5.39347,0.808375 2.39601,-0.08146 4.26858,-0.594311 5.61087,-1.539084 1.35542,-0.945338 2.03944,-2.166857 2.05808,-3.662458 0.016,-1.287065 -0.29079,-2.224268 -0.91423,-2.809808 -0.61092,-0.586374 -1.55019,-1.022879 -2.81675,-1.310352 -0.95952,-0.221731 -2.00215,-0.394882 -3.12818,-0.519724 -1.11326,-0.125345 -2.29534,-0.293602 -3.54573,-0.504645 -2.52619,-0.447065 -4.38202,-1.300793 -5.56956,-2.557889 -1.17523,-1.271398 -1.72513,-2.955887 -1.66811,-5.059363 0.0654,-2.41175 1.11066,-4.427647 3.11839,-6.05035 2.00867,-1.636194 4.51943,-2.526114 7.55626,-2.667816 1.9625,-0.09157 3.76212,0.01698 5.40311,0.327415 1.6409,0.310417 3.09753,0.720063 4.37001,1.229903 0.0164,1.521857 0.0295,3.043858 0.0392,4.566004 -0.0884,0.0042 -0.17678,0.0083 -0.26518,0.01247 -1.07894,-0.886195 -2.49434,-1.593144 -4.24427,-2.122224 -1.73751,-0.542696 -3.51401,-0.772041 -5.33604,-0.689981 -1.9977,0.08997 -3.60979,0.588138 -4.84377,1.494165 -1.22116,0.905318 -1.84863,2.02916 -1.87636,3.372768 -0.0248,1.201915 0.25773,2.132432 0.85324,2.793405 0.59522,0.660648 1.65966,1.141831 3.19512,1.442573 0.81161,0.14845 1.96915,0.322286 3.4701,0.520263 1.50165,0.198068 2.7752,0.411445 3.82003,0.640661 2.11459,0.48325 3.70953,1.279964 4.78197,2.39279 1.0717,1.112043 1.60977,2.712076 1.59721,4.795422 z"
         id="path72"
         inkscape:connector-curvature="0"
         inkscape:original-d="m 242.8418,62.14165 q 0,1.699219 -0.80078,3.359375 -0.78125,1.660156 -2.20704,2.8125 -1.5625,1.25 -3.65234,1.953125 -2.07031,0.703125 -5,0.703125 -3.14453,0 -5.66406,-0.585937 -2.5,-0.585938 -5.09766,-1.738282 v -4.84375 h 0.27344 q 2.20703,1.835938 5.09766,2.832032 2.89062,0.996093 5.42968,0.996093 3.59375,0 5.58594,-1.347656 2.01172,-1.347656 2.01172,-3.59375 0,-1.933594 -0.95703,-2.851562 -0.9375,-0.917969 -2.8711,-1.425782 -1.46484,-0.390625 -3.18359,-0.644531 -1.69922,-0.253906 -3.61328,-0.644531 -3.86719,-0.820313 -5.74219,-2.792969 -1.85547,-1.992187 -1.85547,-5.175781 0,-3.652344 3.08594,-5.976563 3.08594,-2.34375 7.83203,-2.34375 3.06641,0 5.625,0.585938 2.5586,0.585937 4.53125,1.445312 v 4.570313 h -0.27344 q -1.66015,-1.40625 -4.375,-2.324219 -2.69531,-0.9375 -5.52734,-0.9375 -3.10547,0 -5,1.289063 -1.875,1.289062 -1.875,3.320312 0,1.816406 0.9375,2.851563 0.9375,1.035156 3.30078,1.582031 1.25,0.273437 3.55469,0.664062 2.30469,0.390625 3.90625,0.800782 3.24219,0.859375 4.88281,2.597656 1.64063,1.738281 1.64063,4.863281 z" />
    </g>
  </g>
</svg>
