<svg width="337" height="337" xmlns="http://www.w3.org/2000/svg" xmlns:xlink="http://www.w3.org/1999/xlink" xml:space="preserve" overflow="hidden"><g transform="translate(-1616 -743)"><path d="M1619.5 776.58C1619.5 759.967 1632.97 746.5 1649.58 746.5L1919.42 746.5C1936.03 746.5 1949.5 759.967 1949.5 776.58L1949.5 1046.42C1949.5 1063.03 1936.03 1076.5 1919.42 1076.5L1649.58 1076.5C1632.97 1076.5 1619.5 1063.03 1619.5 1046.42Z" stroke="#C00000" stroke-width="6.875" stroke-miterlimit="8" fill="#C00000" fill-rule="evenodd"/><rect x="1639" y="766" width="290" height="290" fill="#FFFFFF"/><path d="M1619.5 776.703C1619.5 760.022 1633.02 746.5 1649.7 746.5L1845.3 746.5C1861.98 746.5 1875.5 760.022 1875.5 776.703L1875.5 1046.3C1875.5 1062.98 1861.98 1076.5 1845.3 1076.5L1649.7 1076.5C1633.02 1076.5 1619.5 1062.98 1619.5 1046.3Z" stroke="#C00000" stroke-width="6.875" stroke-miterlimit="8" fill="#C00000" fill-rule="evenodd"/><rect x="1704.5" y="746.5" width="121" height="142" stroke="#FFFFFF" stroke-width="6.875" stroke-miterlimit="8" fill="#FFFFFF"/><path d="M1704.5 967.5 1704.5 877 1765 816.5 1825.5 877 1825.5 967.5 1765 907Z" stroke="#FFFFFF" stroke-width="6.875" stroke-miterlimit="8" fill="#FFFFFF" fill-rule="evenodd"/></g></svg>