<svg width="893" height="617" xmlns="http://www.w3.org/2000/svg" xmlns:xlink="http://www.w3.org/1999/xlink" xml:space="preserve" overflow="hidden"><g transform="translate(-1470 -921)"><path d="M2086.1 1285 2130.67 1285C2130.74 1285.52 2130.8 1286.05 2130.86 1286.57L2201.92 1286.57 2219.22 1285 2254.83 1285C2273.91 1431.13 2342.8 1472.64 2347 1519.28L2201.92 1520.24 2201.92 1521 2086.1 1521 1484 1521 1484 1286.57 2086.1 1286.57 2086.1 1285Z" stroke="#404040" stroke-width="27.5" stroke-miterlimit="8" fill="#7F7F7F" fill-rule="evenodd"/><path d="M0 152 66.2368 0 581 0 514.763 152Z" stroke="#000000" stroke-width="13.75" stroke-miterlimit="8" fill="#FFFFFF" fill-rule="evenodd" transform="matrix(-1 0 0 1 2069 1174)"/><path d="M1572.33 1360C1596.82 1360 1616.67 1325.97 1616.67 1284 1616.67 1242.03 1596.82 1208 1572.33 1208L2175.67 1208C2200.15 1208 2220 1242.03 2220 1284 2220 1325.97 2200.15 1360 2175.67 1360Z" fill="#7F7F7F" fill-rule="evenodd"/><path d="M1572.33 1360C1547.85 1360 1528 1325.97 1528 1284 1528 1242.03 1547.85 1208 1572.33 1208 1596.82 1208 1616.67 1242.03 1616.67 1284 1616.67 1325.97 1596.82 1360 1572.33 1360Z" fill="#B2B2B2" fill-rule="evenodd"/><path d="M1572.33 1208C1596.82 1208 1616.67 1242.03 1616.67 1284 1616.67 1325.97 1596.82 1360 1572.33 1360 1547.85 1360 1528 1325.97 1528 1284 1528 1242.03 1547.85 1208 1572.33 1208L2175.67 1208C2200.15 1208 2220 1242.03 2220 1284 2220 1325.97 2200.15 1360 2175.67 1360L1572.33 1360" stroke="#404040" stroke-width="27.5" stroke-miterlimit="8" fill="none" fill-rule="evenodd"/><path d="M0 442 192.61 0 692 0 499.39 442Z" stroke="#000000" stroke-width="13.75" stroke-miterlimit="8" fill="#FFFFFF" fill-rule="evenodd" transform="matrix(-1 0 0 1 2220 928)"/><path d="M1695 1174.54C1725.22 1169.27 1741.82 1164.29 1739.5 1125.01 1737.18 1085.72 1698.54 1111.91 1708.95 1138.67 1719.35 1165.43 1746.25 1183.08 1774.04 1167.71 1801.82 1152.34 1810.9 1126.71 1823.85 1128.42 1836.8 1130.13 1843.55 1176.82 1851.75 1177.96 1859.94 1179.1 1866.47 1157.18 1873 1135.26" stroke="#000000" stroke-width="13.75" stroke-linecap="round" stroke-miterlimit="8" fill="none" fill-rule="evenodd"/><path d="M2073 1199.5C2073 1262.18 2011.66 1313 1936 1313 1861.83 1313 1801.13 1264.1 1799.05 1202.68L1799.05 1202.68C1801.17 1265.34 1864.2 1314.71 1939.84 1312.96 2013.98 1311.23 2073 1260.95 2073 1199.5Z" stroke="#595959" stroke-width="27.5" stroke-miterlimit="8" fill="#262626" fill-rule="evenodd"/><path d="M2073 1244.47C2073 1246.94 2106.8 1248.95 2148.5 1248.95 2190.2 1248.95 2224 1246.94 2224 1244.47L2224 1326.53C2224 1329 2190.2 1331 2148.5 1331 2106.8 1331 2073 1329 2073 1326.53Z" fill="#262626" fill-rule="evenodd"/><path d="M2073 1244.47C2073 1242 2106.8 1240 2148.5 1240 2190.2 1240 2224 1242 2224 1244.47 2224 1246.94 2190.2 1248.95 2148.5 1248.95 2106.8 1248.95 2073 1246.94 2073 1244.47Z" fill="#7D7D7D" fill-rule="evenodd"/><path d="M2224 1244.47C2224 1246.94 2190.2 1248.95 2148.5 1248.95 2106.8 1248.95 2073 1246.94 2073 1244.47 2073 1242 2106.8 1240 2148.5 1240 2190.2 1240 2224 1242 2224 1244.47L2224 1326.53C2224 1329 2190.2 1331 2148.5 1331 2106.8 1331 2073 1329 2073 1326.53L2073 1244.47" stroke="#000000" stroke-width="27.5" stroke-miterlimit="8" fill="none" fill-rule="evenodd"/><path d="M1642 1057.05C1672.31 1033.93 1702.62 1010.82 1717.35 1011.98 1732.08 1013.13 1713.24 1065.14 1730.39 1063.98 1747.53 1062.83 1800.42 1006.78 1820.22 1005.04 1840.03 1003.31 1842.2 1053 1849.2 1053.58 1856.21 1054.16 1849.69 1009.09 1862.24 1008.51 1874.8 1007.93 1902.09 1050.69 1924.55 1050.11 1947.01 1049.54 1972.01 1027.29 1997 1005.04" stroke="#000000" stroke-width="13.75" stroke-linecap="round" stroke-miterlimit="8" fill="none" fill-rule="evenodd"/><path d="M1645 1244.47C1645 1246.94 1678.8 1248.95 1720.5 1248.95 1762.2 1248.95 1796 1246.94 1796 1244.47L1796 1326.53C1796 1329 1762.2 1331 1720.5 1331 1678.8 1331 1645 1329 1645 1326.53Z" fill="#262626" fill-rule="evenodd"/><path d="M1645 1244.47C1645 1242 1678.8 1240 1720.5 1240 1762.2 1240 1796 1242 1796 1244.47 1796 1246.94 1762.2 1248.95 1720.5 1248.95 1678.8 1248.95 1645 1246.94 1645 1244.47Z" fill="#7D7D7D" fill-rule="evenodd"/><path d="M1796 1244.47C1796 1246.94 1762.2 1248.95 1720.5 1248.95 1678.8 1248.95 1645 1246.94 1645 1244.47 1645 1242 1678.8 1240 1720.5 1240 1762.2 1240 1796 1242 1796 1244.47L1796 1326.53C1796 1329 1762.2 1331 1720.5 1331 1678.8 1331 1645 1329 1645 1326.53L1645 1244.47" stroke="#000000" stroke-width="27.5" stroke-miterlimit="8" fill="none" fill-rule="evenodd"/><path d="M1484 1286 1528.59 1286 1531.77 1312.79C1538.54 1340.04 1554.4 1359.15 1572.88 1359.15 1591.36 1359.15 1607.22 1340.04 1613.99 1312.79L1617.17 1286 1652.79 1286C1671.88 1432.75 1740.8 1474.43 1745 1521.28L1484 1523 1484 1286Z" stroke="#404040" stroke-width="27.5" stroke-miterlimit="8" fill="#7F7F7F" fill-rule="evenodd"/><path d="M2075.5 1296C2075.5 1283.02 2086.02 1272.5 2099 1272.5L2161 1272.5C2173.98 1272.5 2184.5 1283.02 2184.5 1296L2184.5 1296C2184.5 1308.98 2173.98 1319.5 2161 1319.5L2099 1319.5C2086.02 1319.5 2075.5 1308.98 2075.5 1296Z" stroke="#B88C00" stroke-width="20.625" stroke-miterlimit="8" fill="#F6C6AD" fill-rule="evenodd"/><path d="M1995.5 1296C1995.5 1283.02 2006.02 1272.5 2019 1272.5L2081 1272.5C2093.98 1272.5 2104.5 1283.02 2104.5 1296L2104.5 1296C2104.5 1308.98 2093.98 1319.5 2081 1319.5L2019 1319.5C2006.02 1319.5 1995.5 1308.98 1995.5 1296Z" stroke="#B88C00" stroke-width="20.625" stroke-miterlimit="8" fill="#F6C6AD" fill-rule="evenodd"/><path d="M1916.5 1296C1916.5 1283.02 1927.02 1272.5 1940 1272.5L2001 1272.5C2013.98 1272.5 2024.5 1283.02 2024.5 1296L2024.5 1296C2024.5 1308.98 2013.98 1319.5 2001 1319.5L1940 1319.5C1927.02 1319.5 1916.5 1308.98 1916.5 1296Z" stroke="#B88C00" stroke-width="20.625" stroke-miterlimit="8" fill="#F6C6AD" fill-rule="evenodd"/><path d="M1836.5 1296C1836.5 1283.02 1847.02 1272.5 1860 1272.5L1921 1272.5C1933.98 1272.5 1944.5 1283.02 1944.5 1296L1944.5 1296C1944.5 1308.98 1933.98 1319.5 1921 1319.5L1860 1319.5C1847.02 1319.5 1836.5 1308.98 1836.5 1296Z" stroke="#B88C00" stroke-width="20.625" stroke-miterlimit="8" fill="#F6C6AD" fill-rule="evenodd"/><path d="M1756.5 1296C1756.5 1283.02 1767.02 1272.5 1780 1272.5L1841 1272.5C1853.98 1272.5 1864.5 1283.02 1864.5 1296L1864.5 1296C1864.5 1308.98 1853.98 1319.5 1841 1319.5L1780 1319.5C1767.02 1319.5 1756.5 1308.98 1756.5 1296Z" stroke="#B88C00" stroke-width="20.625" stroke-miterlimit="8" fill="#F6C6AD" fill-rule="evenodd"/><path d="M1676.5 1296C1676.5 1283.02 1687.02 1272.5 1700 1272.5L1761 1272.5C1773.98 1272.5 1784.5 1283.02 1784.5 1296L1784.5 1296C1784.5 1308.98 1773.98 1319.5 1761 1319.5L1700 1319.5C1687.02 1319.5 1676.5 1308.98 1676.5 1296Z" stroke="#B88C00" stroke-width="20.625" stroke-miterlimit="8" fill="#F6C6AD" fill-rule="evenodd"/><path d="M2125.5 1346.5C2125.5 1333.8 2135.8 1323.5 2148.5 1323.5L2210.5 1323.5C2223.2 1323.5 2233.5 1333.8 2233.5 1346.5L2233.5 1346.5C2233.5 1359.2 2223.2 1369.5 2210.5 1369.5L2148.5 1369.5C2135.8 1369.5 2125.5 1359.2 2125.5 1346.5Z" stroke="#B88C00" stroke-width="20.625" stroke-miterlimit="8" fill="#F6C6AD" fill-rule="evenodd"/><path d="M2045.5 1346.5C2045.5 1333.8 2055.8 1323.5 2068.5 1323.5L2131.5 1323.5C2144.2 1323.5 2154.5 1333.8 2154.5 1346.5L2154.5 1346.5C2154.5 1359.2 2144.2 1369.5 2131.5 1369.5L2068.5 1369.5C2055.8 1369.5 2045.5 1359.2 2045.5 1346.5Z" stroke="#B88C00" stroke-width="20.625" stroke-miterlimit="8" fill="#F6C6AD" fill-rule="evenodd"/><path d="M1965.5 1346.5C1965.5 1333.8 1975.8 1323.5 1988.5 1323.5L2051.5 1323.5C2064.2 1323.5 2074.5 1333.8 2074.5 1346.5L2074.5 1346.5C2074.5 1359.2 2064.2 1369.5 2051.5 1369.5L1988.5 1369.5C1975.8 1369.5 1965.5 1359.2 1965.5 1346.5Z" stroke="#B88C00" stroke-width="20.625" stroke-miterlimit="8" fill="#F6C6AD" fill-rule="evenodd"/><path d="M1886.5 1346.5C1886.5 1333.8 1896.8 1323.5 1909.5 1323.5L1971.5 1323.5C1984.2 1323.5 1994.5 1333.8 1994.5 1346.5L1994.5 1346.5C1994.5 1359.2 1984.2 1369.5 1971.5 1369.5L1909.5 1369.5C1896.8 1369.5 1886.5 1359.2 1886.5 1346.5Z" stroke="#B88C00" stroke-width="20.625" stroke-miterlimit="8" fill="#F6C6AD" fill-rule="evenodd"/><path d="M1806.5 1346.5C1806.5 1333.8 1816.8 1323.5 1829.5 1323.5L1891.5 1323.5C1904.2 1323.5 1914.5 1333.8 1914.5 1346.5L1914.5 1346.5C1914.5 1359.2 1904.2 1369.5 1891.5 1369.5L1829.5 1369.5C1816.8 1369.5 1806.5 1359.2 1806.5 1346.5Z" stroke="#B88C00" stroke-width="20.625" stroke-miterlimit="8" fill="#F6C6AD" fill-rule="evenodd"/><path d="M1726.5 1346.5C1726.5 1333.8 1736.8 1323.5 1749.5 1323.5L1811.5 1323.5C1824.2 1323.5 1834.5 1333.8 1834.5 1346.5L1834.5 1346.5C1834.5 1359.2 1824.2 1369.5 1811.5 1369.5L1749.5 1369.5C1736.8 1369.5 1726.5 1359.2 1726.5 1346.5Z" stroke="#B88C00" stroke-width="20.625" stroke-miterlimit="8" fill="#F6C6AD" fill-rule="evenodd"/><path d="M2175.5 1397C2175.5 1384.02 2186.02 1373.5 2199 1373.5L2260 1373.5C2272.98 1373.5 2283.5 1384.02 2283.5 1397L2283.5 1397C2283.5 1409.98 2272.98 1420.5 2260 1420.5L2199 1420.5C2186.02 1420.5 2175.5 1409.98 2175.5 1397Z" stroke="#B88C00" stroke-width="20.625" stroke-miterlimit="8" fill="#F6C6AD" fill-rule="evenodd"/><path d="M2095.5 1397C2095.5 1384.02 2106.02 1373.5 2119 1373.5L2181 1373.5C2193.98 1373.5 2204.5 1384.02 2204.5 1397L2204.5 1397C2204.5 1409.98 2193.98 1420.5 2181 1420.5L2119 1420.5C2106.02 1420.5 2095.5 1409.98 2095.5 1397Z" stroke="#B88C00" stroke-width="20.625" stroke-miterlimit="8" fill="#F6C6AD" fill-rule="evenodd"/><path d="M2015.5 1397C2015.5 1384.02 2026.02 1373.5 2039 1373.5L2101 1373.5C2113.98 1373.5 2124.5 1384.02 2124.5 1397L2124.5 1397C2124.5 1409.98 2113.98 1420.5 2101 1420.5L2039 1420.5C2026.02 1420.5 2015.5 1409.98 2015.5 1397Z" stroke="#B88C00" stroke-width="20.625" stroke-miterlimit="8" fill="#F6C6AD" fill-rule="evenodd"/><path d="M1936.5 1397C1936.5 1384.02 1947.02 1373.5 1960 1373.5L2021 1373.5C2033.98 1373.5 2044.5 1384.02 2044.5 1397L2044.5 1397C2044.5 1409.98 2033.98 1420.5 2021 1420.5L1960 1420.5C1947.02 1420.5 1936.5 1409.98 1936.5 1397Z" stroke="#B88C00" stroke-width="20.625" stroke-miterlimit="8" fill="#F6C6AD" fill-rule="evenodd"/><path d="M1856.5 1397C1856.5 1384.02 1867.02 1373.5 1880 1373.5L1941 1373.5C1953.98 1373.5 1964.5 1384.02 1964.5 1397L1964.5 1397C1964.5 1409.98 1953.98 1420.5 1941 1420.5L1880 1420.5C1867.02 1420.5 1856.5 1409.98 1856.5 1397Z" stroke="#B88C00" stroke-width="20.625" stroke-miterlimit="8" fill="#F6C6AD" fill-rule="evenodd"/><path d="M1776.5 1397C1776.5 1384.02 1787.02 1373.5 1800 1373.5L1861 1373.5C1873.98 1373.5 1884.5 1384.02 1884.5 1397L1884.5 1397C1884.5 1409.98 1873.98 1420.5 1861 1420.5L1800 1420.5C1787.02 1420.5 1776.5 1409.98 1776.5 1397Z" stroke="#B88C00" stroke-width="20.625" stroke-miterlimit="8" fill="#F6C6AD" fill-rule="evenodd"/><path d="M1906.5 1447.5C1906.5 1434.8 1916.8 1424.5 1929.5 1424.5L2230.5 1424.5C2243.2 1424.5 2253.5 1434.8 2253.5 1447.5L2253.5 1447.5C2253.5 1460.2 2243.2 1470.5 2230.5 1470.5L1929.5 1470.5C1916.8 1470.5 1906.5 1460.2 1906.5 1447.5Z" stroke="#B88C00" stroke-width="20.625" stroke-miterlimit="8" fill="#F6C6AD" fill-rule="evenodd"/></g></svg>